<?xml version="1.0" encoding="iso-8859-1"?>
<!-- Generator: Adobe Illustrator 19.0.0, SVG Export Plug-In . SVG Version: 6.00 Build 0)  -->
<svg version="1.1" id="Capa_1" xmlns="http://www.w3.org/2000/svg" xmlns:xlink="http://www.w3.org/1999/xlink" x="0px" y="0px"
	 viewBox="0 0 488 488" style="enable-background:new 0 0 488 488;" xml:space="preserve">
<g>
	<path d="M340,472h-0.333v-15.708c0-4.418-3.582-8-8-8h-31.75v-88.167H300c4.418,0,8-3.582,8-8s-3.582-8-8-8h-8V320
		c0-4.418-3.582-8-8-8v-59.084l4.68-3.427c0.006-0.005,0.013-0.009,0.019-0.014l0.028-0.021c0.053-0.039,0.099-0.083,0.151-0.123
		c0.151-0.117,0.302-0.234,0.444-0.361c0.102-0.091,0.194-0.188,0.291-0.282c0.087-0.086,0.177-0.169,0.26-0.259
		c0.107-0.116,0.206-0.238,0.305-0.359c0.064-0.078,0.131-0.154,0.192-0.234c0.095-0.125,0.182-0.255,0.269-0.385
		c0.058-0.086,0.118-0.171,0.173-0.26c0.075-0.122,0.142-0.248,0.21-0.374c0.057-0.105,0.117-0.209,0.169-0.318
		c0.054-0.111,0.101-0.225,0.15-0.339c0.055-0.128,0.112-0.255,0.16-0.387c0.037-0.101,0.068-0.204,0.101-0.307
		c0.047-0.145,0.095-0.29,0.134-0.439c0.027-0.102,0.046-0.205,0.068-0.308c0.033-0.149,0.067-0.297,0.091-0.449
		c0.02-0.127,0.031-0.254,0.046-0.382c0.014-0.128,0.033-0.255,0.041-0.385c0.013-0.2,0.013-0.401,0.011-0.602
		c-0.001-0.056,0.005-0.11,0.003-0.166c0-0.007-0.001-0.021-0.001-0.029c0-0.012-0.001-0.023-0.001-0.035
		c-0.057-1.715-0.667-18.831-2.82-41.997l22.574-38.044c2.134-3.597,1.138-8.23-2.286-10.632l-20.741-14.549
		c-1.79-1.256-4.015-1.724-6.157-1.296c-0.807,0.161-1.575,0.443-2.283,0.831c-0.818-4.108-1.69-8.179-2.622-12.178
		c-1.283-5.507-6.083-8.333-10.563-9.859c-2.915-4.997-5.302-12.005-6.416-18.948H264c4.418,0,8-3.582,8-8s-3.582-8-8-8h-12v-8
		c0-4.418-3.582-8-8-8s-8,3.582-8,8v8h-12c-4.418,0-8,3.582-8,8s3.582,8,8,8h3.548c-0.567,4.987-1.704,9.8-3.562,15.06
		c-6.726-1.955-10.393-7.075-12.088-16.34L204,39.433V24c4.418,0,8-3.582,8-8s-3.582-8-8-8c0-4.418-3.582-8-8-8s-8,3.582-8,8h-0.354
		c-4.418,0-8,3.582-8,8s3.582,8,8,8H188v16c0,0.049,0.006,0.097,0.007,0.146c0.003,0.139,0.011,0.278,0.021,0.418
		c0.01,0.143,0.022,0.286,0.039,0.427c0.006,0.047,0.006,0.094,0.013,0.141l7.96,55.717c-9.473,22.223-2.629,37.841,2.907,50.469
		c2.806,6.4,5.229,11.928,5.229,17.399v23.263c-3.825,5.282-6.178,8.75-6.522,9.26c-2.472,3.662-1.508,8.634,2.154,11.107
		c1.343,0.906,2.862,1.344,4.369,1.363V312H204c-4.418,0-8,3.582-8,8v24.125h-8c-4.418,0-8,3.582-8,8s3.582,8,8,8h0.083v88.167
		h-31.75c-4.418,0-8,3.582-8,8V472H148c-4.418,0-8,3.582-8,8s3.582,8,8,8h192c4.418,0,8-3.582,8-8S344.418,472,340,472z
		 M220.175,193.251c10.203-13.762,27.471-35.642,44.795-51.178c7.677,39.688,10.222,83.494,10.857,96.997l-55.651,40.759V193.251z
		 M286.39,155.359l7.815,5.482l-7.941,13.384c-0.644-5.018-1.357-10.135-2.146-15.288L286.39,155.359z M244.518,96
		c0.651,5.281,1.915,10.837,3.763,16.115c-2.241-0.098-3.995-0.115-4.857-0.115h-2.912c1.627-5.407,2.645-10.606,3.135-16H244.518z
		 M213.601,140.895c-3.102-7.077-5.952-13.594-6.246-21.128c6.008,5.432,14.123,8.234,24.177,8.234h11.892
		c4.579,0,8.903,0.327,12.387,0.813c-12.816,11.236-25.438,25.571-35.635,38.223v-2.319
		C220.175,155.894,216.833,148.269,213.601,140.895z M220.175,299.661L268,264.635V312h-47.825V299.661z M212,328h64v16.125h-64V328
		z M204.083,360.125h79.833v88.167h-79.833V360.125z M164.333,464.292h159.333V472H164.333V464.292z"/>
	<path d="M244,368.542c-4.418,0-8,3.582-8,8v7.833c0,4.418,3.582,8,8,8s8-3.582,8-8v-7.833C252,372.123,248.418,368.542,244,368.542
		z"/>
	<path d="M220,368.542c-4.418,0-8,3.582-8,8v7.833c0,4.418,3.582,8,8,8s8-3.582,8-8v-7.833C228,372.123,224.418,368.542,220,368.542
		z"/>
	<path d="M268,368.542c-4.418,0-8,3.582-8,8v7.833c0,4.418,3.582,8,8,8s8-3.582,8-8v-7.833C276,372.123,272.418,368.542,268,368.542
		z"/>
</g>
<g>
</g>
<g>
</g>
<g>
</g>
<g>
</g>
<g>
</g>
<g>
</g>
<g>
</g>
<g>
</g>
<g>
</g>
<g>
</g>
<g>
</g>
<g>
</g>
<g>
</g>
<g>
</g>
<g>
</g>
</svg>
