<?xml version="1.0" encoding="iso-8859-1"?>
<!-- Generator: Adobe Illustrator 19.0.0, SVG Export Plug-In . SVG Version: 6.00 Build 0)  -->
<svg version="1.1" id="Capa_1" xmlns="http://www.w3.org/2000/svg" xmlns:xlink="http://www.w3.org/1999/xlink" x="0px" y="0px"
	 viewBox="0 0 455.833 455.833" style="enable-background:new 0 0 455.833 455.833;" xml:space="preserve">
<path d="M447.833,322.725h-4.356l-21.268-28.757c-1.508-2.04-3.895-3.243-6.432-3.243h-29.929
	c10.19-10.38,27.003-26.407,44.49-38.393c2.799-1.918,4.083-5.394,3.204-8.671c-0.879-3.278-3.729-5.644-7.113-5.904
	c-24.525-1.887-43.355,1.279-57.006,5.635c7.644-11.355,17.116-24.093,28.77-37.597c1.78-2.063,2.388-4.889,1.613-7.501
	s-2.825-4.65-5.441-5.409c-49.812-14.447-101.7,0.747-119.172,6.855c-30.072-42.108-74.045-71.289-124.503-82.444
	c-3.219-0.71-6.547,0.625-8.379,3.368s-1.793,6.328,0.098,9.03c10.417,14.891,19.088,30.71,25.956,47.214
	c-23.769-15.071-51.179-23.889-79.362-25.257c-3.281-0.161-6.349,1.718-7.692,4.729c-1.345,3.011-0.703,6.539,1.614,8.885
	c6.534,6.611,12.529,13.638,17.975,21.021c-22.371-6.961-46.304-8.177-69.289-3.311c-3.227,0.683-5.703,3.276-6.237,6.531
	c-0.534,3.254,0.983,6.503,3.822,8.182c27.829,16.46,49.668,40.71,63.224,70.15L88.669,267c-0.571-0.127-1.155-0.192-1.741-0.192
	H32.166c-3.555,0-6.683,2.345-7.679,5.757l-14.651,50.16H8c-4.418,0-8,3.582-8,8s3.582,8,8,8h7.809c0.009,0,0.018,0.002,0.028,0.002
	c0.008,0,0.016-0.002,0.024-0.002h431.972c4.418,0,8-3.582,8-8S452.251,322.725,447.833,322.725z M371.354,282.661l-10.948-18.308
	c11.098-5.944,25.718-9.666,41.956-10.776C389.415,264.38,378.26,275.462,371.354,282.661z M357.533,290.725h-15.107
	c0.129-0.208,0.263-0.414,0.374-0.636c0.342-0.685,0.745-1.508,1.212-2.463c1.285-2.629,3.036-6.211,5.33-10.599L357.533,290.725z
	 M264.166,290.725H202.16l62.006-62.006V290.725z M280.166,228.45c14.948,15.361,26.109,29.311,33.364,39.162
	c10.012,13.594,14.979,22.535,15.099,22.751c0.07,0.127,0.156,0.24,0.232,0.362h-48.695V228.45z M377.694,205.361
	c-21.891,26.993-35.269,50.285-42.811,64.783c-8.513-12.77-24.16-33.96-47.764-57.437
	C305.27,207.146,341.559,198.635,377.694,205.361z M261.781,208.475L203.356,266.9c-0.991-45.588-13.455-89.519-36.357-128.501
	C205.042,151.163,238.048,175.488,261.781,208.475z M187.421,272.807c0,4.328-0.119,8.799-0.355,13.29
	c-0.053,1.021,0.11,2.01,0.421,2.942l-37.718-8.412c0.724-0.63,1.353-1.385,1.822-2.27l30.458-57.372
	C185.605,237.879,187.421,255.224,187.421,272.807z M174.51,201.062l-26.289,49.52c-7.188-29.556-20.648-56.901-39.594-80.5
	C132.67,174.712,155.417,185.363,174.51,201.062z M55.327,196.112c18.645-0.694,37.372,2.93,54.551,10.646L100.2,247.93
	C88.778,227.762,73.579,210.219,55.327,196.112z M122.358,223.592c6.048,13.98,10.446,28.739,13.059,44.05
	c0.405,2.376,0.788,4.986,1.171,7.978c0.1,0.779,0.324,1.515,0.63,2.208l-26.234-5.851L122.358,223.592z M38.163,282.808h47.884
	l106.378,23.725c0.571,0.127,1.155,0.192,1.741,0.192h217.578l11.834,16H26.504L38.163,282.808z"/>
<g>
</g>
<g>
</g>
<g>
</g>
<g>
</g>
<g>
</g>
<g>
</g>
<g>
</g>
<g>
</g>
<g>
</g>
<g>
</g>
<g>
</g>
<g>
</g>
<g>
</g>
<g>
</g>
<g>
</g>
</svg>
