<?xml version="1.0" encoding="iso-8859-1"?>
<!-- Generator: Adobe Illustrator 19.0.0, SVG Export Plug-In . SVG Version: 6.00 Build 0)  -->
<svg version="1.1" id="Capa_1" xmlns="http://www.w3.org/2000/svg" xmlns:xlink="http://www.w3.org/1999/xlink" x="0px" y="0px"
	 viewBox="0 0 472 472" style="enable-background:new 0 0 472 472;" xml:space="preserve">
<path d="M324,456h-5.011c-29.04-27.208-50.067-81.432-62.565-161.337C258.578,293.23,260,290.782,260,288v-16
	c0-4.348-3.472-7.879-7.793-7.99c-4.112-34.287-6.687-71.785-7.703-112.036c4.182-0.262,7.495-3.727,7.495-7.975
	c0-4.358-3.488-7.896-7.824-7.991c-0.078-5.287-0.121-10.634-0.147-16.01c4.405-0.016,7.971-3.59,7.971-7.999c0-4.418-3.582-8-8-8V8
	c0-4.418-3.582-8-8-8s-8,3.582-8,8v96c-4.418,0-8,3.582-8,8c0,4.367,3.501,7.911,7.848,7.992c-0.026,5.38-0.069,10.732-0.147,16.023
	C223.423,136.174,220,139.683,220,144c0,4.206,3.249,7.647,7.373,7.968c-1.016,40.249-3.59,77.746-7.701,112.032H219
	c-4.418,0-8,3.582-8,8v16c0,3.113,1.782,5.805,4.379,7.127C202.872,374.776,181.871,428.844,152.888,456H148c-4.418,0-8,3.582-8,8
	s3.582,8,8,8h48c4.418,0,8-3.582,8-8c0-3.038-1.694-5.681-4.188-7.035c7.124-8.636,17.066-14.408,28.188-16.291V456
	c-4.418,0-8,3.582-8,8s3.582,8,8,8h16c4.418,0,8-3.582,8-8s-3.582-8-8-8v-15.326c11.122,1.883,21.064,7.655,28.188,16.291
	C269.694,458.319,268,460.962,268,464c0,4.418,3.582,8,8,8h48c4.418,0,8-3.582,8-8S328.418,456,324,456z M228.703,312
	c0.942-5.301,1.829-10.638,2.662-16h9.146c0.834,5.362,1.721,10.699,2.662,16H228.703z M235.938,262.161
	c0.071,0.613,0.147,1.226,0.219,1.839h-0.438C235.792,263.387,235.867,262.774,235.938,262.161z M181.153,456h-6.502
	c24.554-30.164,40.613-76.707,51.012-128H228v96.528C208.48,427.07,190.932,438.768,181.153,456z M244,424.528V328h2.213
	c10.4,51.293,26.458,97.836,51.013,128h-6.379C281.067,438.768,263.52,427.07,244,424.528z"/>
<g>
</g>
<g>
</g>
<g>
</g>
<g>
</g>
<g>
</g>
<g>
</g>
<g>
</g>
<g>
</g>
<g>
</g>
<g>
</g>
<g>
</g>
<g>
</g>
<g>
</g>
<g>
</g>
<g>
</g>
</svg>
