<?xml version="1.0" standalone="no"?>
<!DOCTYPE svg PUBLIC "-//W3C//DTD SVG 1.1//EN" "http://www.w3.org/Graphics/SVG/1.1/DTD/svg11.dtd" >
<svg>
<metadata>
Created by FontForge 20090622 at Tue May  3 17:02:39 2016
 By deploy user
copyright missing
</metadata>
<defs>
<font id="GothMedium-Regular" horiz-adv-x="500" >
  <font-face 
    font-family="Goth Medium"
    font-weight="400"
    font-stretch="normal"
    units-per-em="1000"
    panose-1="0 0 5 0 0 0 0 0 0 0"
    ascent="800"
    descent="-200"
    x-height="528"
    cap-height="700"
    bbox="-70 -165.043 1180 922"
    underline-thickness="20"
    underline-position="-103"
    unicode-range="U+000D-U+FB02"
  />
<missing-glyph 
 />
    <glyph glyph-name="fi" unicode="fi" horiz-adv-x="662" 
d="M459 0h121v528h-121v-528zM103 0h121v424h138v100h-140v29q0 80 70 80q32 0 71 -13v102q-47 14 -98 14q-78 0 -120 -43.5t-42 -129.5v-38h-67v-101h67v-424zM454 609h130v115h-130v-115z" />
    <glyph glyph-name="fl" unicode="fl" horiz-adv-x="662" 
d="M459 0h121v730h-121v-730zM103 0h121v424h138v100h-140v29q0 80 70 80q32 0 71 -13v102q-47 14 -98 14q-78 0 -120 -43.5t-42 -129.5v-38h-67v-101h67v-424z" />
    <glyph glyph-name=".notdef" 
 />
    <glyph glyph-name=".null" horiz-adv-x="0" 
 />
    <glyph glyph-name="nonmarkingreturn" horiz-adv-x="333" 
 />
    <glyph glyph-name="CR" unicode="&#xd;" horiz-adv-x="300" 
 />
    <glyph glyph-name="space" unicode=" " horiz-adv-x="300" 
 />
    <glyph glyph-name="exclam" unicode="!" horiz-adv-x="302" 
d="M85 0h133v137h-133v-137zM118 221h67l37 444v35h-142v-35z" />
    <glyph glyph-name="quotedbl" unicode="&#x22;" horiz-adv-x="487" 
d="M60 401h63l97 294v5h-137zM279 401h63l98 294v5h-137z" />
    <glyph glyph-name="numbersign" unicode="#" horiz-adv-x="700" 
d="M253 265l30 174h164l-30 -174h-164zM101 0h107l27 161h164l-28 -161h107l28 161h118v104h-100l29 174h107v104h-89l27 157h-107l-26 -157h-164l27 157h-107l-27 -157h-118v-104h100l-29 -174h-108v-104h90z" />
    <glyph glyph-name="dollar" unicode="$" horiz-adv-x="642" 
d="M368 102v181q56 -17 77.5 -38.5t21.5 -55.5v-2q0 -36 -25.5 -58.5t-73.5 -26.5zM289 599v-176q-55 16 -75.5 37t-20.5 54v2q0 34 24.5 56.5t71.5 26.5zM285 -98h87v99q95 7 154 60t59 133v2q0 80 -51.5 128.5t-165.5 77.5v190q73 -15 136 -64l56 94q-87 64 -188 76v60
h-87v-58q-94 -7 -152 -59t-58 -132v-2q0 -82 50.5 -129.5t163.5 -75.5v-196q-90 15 -176 86l-64 -91q102 -82 236 -99v-100z" />
    <glyph glyph-name="percent" unicode="%" horiz-adv-x="849" 
d="M637 69q-33 0 -55 29.5t-22 72.5v2q0 43 20.5 71.5t54.5 28.5q33 0 55 -29.5t22 -72.5v-2q0 -43 -20.5 -71.5t-54.5 -28.5zM214 427q-33 0 -55 29.5t-22 72.5v2q0 43 20.5 71.5t54.5 28.5q33 0 55 -29.5t22 -72.5v-2q0 -43 -20.5 -71.5t-54.5 -28.5zM635 -8q73 0 120 54
q46 51 46 125v2q0 72 -45 125q-47 52 -119 52t-120 -53q-46 -52 -46 -126v-2q0 -73 46 -124q45 -53 118 -53zM119 0h99l512 700h-99zM212 350q73 0 120 54q46 51 46 125v2q0 72 -45 125q-47 52 -119 52t-120 -53q-46 -52 -46 -126v-2q0 -73 46 -124q45 -53 118 -53z" />
    <glyph glyph-name="ampersand" unicode="&#x26;" horiz-adv-x="696" 
d="M280 92q-51 0 -84 28.5t-33 73.5v2q0 76 93 116l156 -159q-63 -61 -132 -61zM298 425q-53 58 -53 104v2q0 37 22.5 60.5t60.5 23.5q35 0 57.5 -22t22.5 -57v-2q0 -37 -27 -62.5t-83 -46.5zM575 -14l91 65l-110 112q47 64 95 160l-93 49q-37 -78 -75 -135l-120 122
q154 58 154 182v2q0 71 -51 120q-52 49 -135 49q-89 0 -147 -53q-54 -49 -54 -123v-2q0 -72 58 -146q-149 -64 -149 -196v-2q0 -89 66 -145q61 -55 162 -55q117 0 215 91z" />
    <glyph glyph-name="quotesingle" unicode="'" horiz-adv-x="269" 
d="M60 401h64l98 294v5h-139z" />
    <glyph glyph-name="parenleft" unicode="(" horiz-adv-x="440" 
d="M340 -141l53 81q-108 70 -158.5 153t-50.5 194q0 112 51 194q52 83 158 153l-53 81q-277 -151 -277 -428t277 -428z" />
    <glyph glyph-name="parenright" unicode=")" horiz-adv-x="440" 
d="M48 -60l53 -81q277 153 277 428t-277 428l-53 -81q108 -73 158.5 -155t50.5 -192q0 -112 -51 -194q-52 -83 -158 -153z" />
    <glyph glyph-name="asterisk" unicode="*" horiz-adv-x="430" 
d="M180 382h70l-14 122l100 -73l36 61l-114 50l114 50l-36 61l-100 -73l14 122h-70l14 -122l-100 73l-36 -61l114 -50l-114 -50l36 -61l100 73z" />
    <glyph glyph-name="plus" unicode="+" horiz-adv-x="640" 
d="M263 106h114v191h192v110h-192v191h-114v-191h-192v-110h192v-191z" />
    <glyph glyph-name="comma" unicode="," horiz-adv-x="269" 
d="M34 -94l13 -51q78 6 116 45t38 121v116h-133v-137h51q7 -76 -85 -94z" />
    <glyph glyph-name="hyphen" unicode="-" horiz-adv-x="408" 
d="M56 247h296v119h-296v-119z" />
    <glyph glyph-name="period" unicode="." horiz-adv-x="269" 
d="M68 0h133v137h-133v-137z" />
    <glyph glyph-name="slash" unicode="/" horiz-adv-x="521" 
d="M-25 -128h105l452 926h-105z" />
    <glyph glyph-name="zero" unicode="0" horiz-adv-x="724" 
d="M363 99q-79 0 -130 74q-49 69 -49 177v2q0 107 48 177q51 72 129 72q79 0 130 -74q49 -71 49 -177v-2q0 -108 -48 -176q-50 -73 -129 -73zM361 -12q136 0 222 106q84 103 84 256v2q0 151 -83 255q-86 105 -221 105q-136 0 -222 -106q-84 -103 -84 -256v-2q0 -153 83 -255
q86 -105 221 -105z" />
    <glyph glyph-name="one" unicode="1" horiz-adv-x="396" 
d="M178 0h122v705h-86l-188 -60l26 -100l126 35v-580z" />
    <glyph glyph-name="two" unicode="2" horiz-adv-x="613" 
d="M49 0h506v108h-333l144 120q107 89 138 132q44 60 44 139v2q0 93 -64 152q-65 57 -167 57q-87 0 -150 -38q-55 -34 -108 -109l87 -68q43 56 79.5 80.5t82.5 24.5q49 0 81 -29.5t32 -79.5q0 -46 -29 -88q-29 -40 -102 -101l-241 -205v-97z" />
    <glyph glyph-name="three" unicode="3" horiz-adv-x="618" 
d="M311 -12q109 0 177 62t68 159v2q0 91 -63 142q-53 43 -143 55l195 200v92h-463v-107h303l-189 -201l20 -77h57q75 0 118 -28.5t43 -79.5v-2q0 -47 -34.5 -76.5t-86.5 -29.5q-106 0 -184 92l-86 -80q103 -123 268 -123z" />
    <glyph glyph-name="four" unicode="4" horiz-adv-x="681" 
d="M182 258l230 277v-277h-230zM412 0h118v157h100v101h-100v447h-105l-389 -460l23 -88h353v-157z" />
    <glyph glyph-name="five" unicode="5" horiz-adv-x="622" 
d="M304 -12q117 0 188 65t71 172v2q0 106 -70 166q-66 54 -173 54q-56 0 -111 -20l11 164h312v109h-418l-20 -343l74 -49q66 31 129 31q65 0 105 -31.5t40 -84.5v-2q0 -55 -38 -88t-101 -33q-90 0 -180 84l-76 -89q112 -107 257 -107z" />
    <glyph glyph-name="six" unicode="6" horiz-adv-x="656" 
d="M334 94q-67 0 -105 36q-40 37 -40 90v2q0 53 39 87q39 36 103 36q65 0 104 -34t39 -88v-2q0 -55 -37 -90q-37 -37 -103 -37zM337 -12q110 0 185 67t75 171v2q0 102 -71 163q-67 57 -174 57q-53 0 -100 -21q-25 -12 -67 -49q5 98 47 159q44 63 121 63q75 0 152 -61l66 95
q-97 78 -214 78q-143 0 -224 -110q-76 -105 -76 -271v-2q0 -101 23 -167q21 -60 62 -101q73 -73 195 -73z" />
    <glyph glyph-name="seven" unicode="7" horiz-adv-x="609" 
d="M106 0h138l316 607v93h-492v-108h352z" />
    <glyph glyph-name="eight" unicode="8" horiz-adv-x="630" 
d="M315 93q-67 0 -107 30.5t-40 74.5v2q0 46 43 77q40 29 104 29q65 0 105 -29q42 -31 42 -77v-2q0 -45 -40 -75t-107 -30zM315 404q-54 0 -89.5 29t-35.5 75v2q0 41 34.5 69t90.5 28t90.5 -28t34.5 -70v-2q0 -45 -35.5 -74t-89.5 -29zM315 -10q118 0 191 55q76 55 76 148v2
q0 110 -126 168q102 53 102 156v2q0 82 -69 135q-70 54 -174 54q-106 0 -174 -54q-69 -55 -69 -135v-2q0 -103 102 -156q-126 -52 -126 -171v-2q0 -90 76 -145q75 -55 191 -55z" />
    <glyph glyph-name="nine" unicode="9" horiz-adv-x="656" 
d="M325 349q-65 0 -104 35t-39 90v2q0 55 37 92q38 38 102 38q66 0 106 -36.5t40 -92.5v-2q0 -53 -37 -88q-40 -38 -105 -38zM299 -12q139 0 221 106q79 104 79 275v2q0 182 -85 267q-74 74 -194 74q-114 0 -188 -69q-73 -70 -73 -173v-2q0 -101 69 -162q66 -60 179 -60
q104 0 164 74q-5 -99 -47 -158q-45 -62 -122 -62q-82 0 -160 66l-67 -94q103 -84 224 -84z" />
    <glyph glyph-name="colon" unicode=":" horiz-adv-x="279" 
d="M73 0h133v137h-133v-137zM73 391h133v137h-133v-137z" />
    <glyph glyph-name="semicolon" unicode=";" horiz-adv-x="279" 
d="M39 -94l13 -51q78 6 116 45t38 121v116h-133v-137h51q7 -76 -85 -94zM73 391h133v137h-133v-137z" />
    <glyph glyph-name="less" unicode="&#x3c;" horiz-adv-x="640" 
d="M547 77v116l-357 160l357 159v115l-477 -221v-108z" />
    <glyph glyph-name="equal" unicode="=" horiz-adv-x="640" 
d="M86 171h468v112h-468v-112zM86 421h468v112h-468v-112z" />
    <glyph glyph-name="greater" unicode="&#x3e;" horiz-adv-x="640" 
d="M93 77l477 221v108l-477 221v-116l357 -160l-357 -159v-115z" />
    <glyph glyph-name="question" unicode="?" horiz-adv-x="541" 
d="M178 0h134v137h-134v-137zM207 221h81l10 81q90 14 142 61q59 52 59 141v2q0 91 -64 149q-63 54 -170 54q-143 0 -241 -111l75 -80q74 79 163 79q53 0 84 -26t31 -69v-2q0 -105 -185 -112l-5 -5z" />
    <glyph glyph-name="at" unicode="@" horiz-adv-x="980" 
d="M457 154q-48 0 -77 28.5t-29 79.5q0 66 42 113q40 45 97 45q45 0 75 -30t30 -78q0 -64 -42 -111q-41 -47 -96 -47zM499 -162q142 0 265 75l-18 30q-116 -67 -247 -67q-176 0 -292 116q-114 114 -114 282q0 167 114 283q115 117 284 117q166 0 283 -110q113 -107 113 -248
q0 -98 -39 -153q-37 -52 -93 -52q-36 0 -57 19t-21 52q0 11 5 43l44 252l-97 15l-12 -60q-50 74 -141 74q-88 0 -157 -72q-70 -73 -70 -178q0 -86 53 -137q52 -52 128 -52q87 0 155 70q44 -70 148 -70q82 0 136 62q58 66 58 187q0 77 -33 149t-93 127q-132 120 -310 120
q-182 0 -311 -129q-127 -129 -127 -309q0 -182 127 -307q129 -129 319 -129z" />
    <glyph glyph-name="A" unicode="A" horiz-adv-x="790" 
d="M273 278l120 280l121 -280h-241zM30 0h126l72 169h331l71 -169h130l-308 705h-114z" />
    <glyph glyph-name="B" unicode="B" horiz-adv-x="722" 
d="M211 109v192h195q144 0 144 -94v-2q0 -47 -35.5 -71.5t-99.5 -24.5h-204zM211 405v186h177q60 0 91.5 -23.5t31.5 -65.5v-2q0 -47 -35 -71t-97 -24h-168zM90 0h324q119 0 188 49q71 50 71 143v2q0 67 -38 110q-32 35 -101 60q46 24 70 57q30 40 30 99v2q0 75 -58 126.5
t-172 51.5h-314v-700z" />
    <glyph glyph-name="C" unicode="C" horiz-adv-x="738" 
d="M415 -12q94 0 164 34q67 33 120 90l-79 80q-49 -46 -95 -68.5t-106 -22.5q-99 0 -166 73q-65 71 -65 176v2q0 104 65 175q67 72 166 72q102 0 196 -87l79 91q-53 51 -114 79q-69 30 -160 30q-157 0 -260 -106q-101 -104 -101 -256v-2q0 -153 102 -255q102 -105 254 -105z
" />
    <glyph glyph-name="D" unicode="D" horiz-adv-x="782" 
d="M213 112v476h138q110 0 177 -67q66 -66 66 -171v-2q0 -103 -66 -169q-67 -67 -177 -67h-138zM90 0h261q163 0 269 101q103 98 103 249v2q0 150 -103 248q-105 100 -269 100h-261v-700z" />
    <glyph glyph-name="E" unicode="E" horiz-adv-x="670" 
d="M90 0h524v110h-401v188h351v110h-351v182h396v110h-519v-700z" />
    <glyph glyph-name="F" unicode="F" horiz-adv-x="656" 
d="M90 0h123v285h353v112h-353v191h398v112h-521v-700z" />
    <glyph glyph-name="G" unicode="G" horiz-adv-x="784" 
d="M422 -12q89 0 167 32q65 27 125 77v294h-298v-107h179v-131q-71 -53 -169 -53q-104 0 -172 71q-66 69 -66 179v2q0 102 66 174q66 73 161 73q59 0 111 -20q40 -17 85 -55l78 93q-55 47 -116 70q-67 25 -153 25q-156 0 -260 -107q-101 -104 -101 -255v-2q0 -156 100 -256
q101 -104 263 -104z" />
    <glyph glyph-name="H" unicode="H" horiz-adv-x="760" 
d="M90 0h123v295h334v-295h123v700h-123v-291h-334v291h-123v-700z" />
    <glyph glyph-name="I" unicode="I" horiz-adv-x="317" 
d="M97 0h123v700h-123v-700z" />
    <glyph glyph-name="J" unicode="J" horiz-adv-x="559" 
d="M245 -10q108 0 170 62q65 65 65 186v462h-126v-459q0 -68 -29.5 -102.5t-81.5 -34.5q-43 0 -75.5 20t-65.5 62l-81 -83q83 -113 224 -113z" />
    <glyph glyph-name="K" unicode="K" horiz-adv-x="725" 
d="M90 0h123v203l109 112l239 -315h149l-304 399l291 301h-151l-333 -352v352h-123v-700z" />
    <glyph glyph-name="L" unicode="L" horiz-adv-x="619" 
d="M90 0h491v112h-368v588h-123v-700z" />
    <glyph glyph-name="M" unicode="M" horiz-adv-x="868" 
d="M90 0h121v500l219 -328h4l221 330v-502h123v700h-131l-213 -331l-213 331h-131v-700z" />
    <glyph glyph-name="N" unicode="N" horiz-adv-x="790" 
d="M90 0h121v498l386 -498h103v700h-121v-484l-375 484h-114v-700z" />
    <glyph glyph-name="O" unicode="O" horiz-adv-x="850" 
d="M426 101q-102 0 -171 74q-67 70 -67 175v2q0 103 66 175q67 72 170 72q102 0 172 -73q66 -71 66 -176v-2q0 -103 -66 -174q-67 -73 -170 -73zM424 -12q158 0 264 108q103 105 103 254v2q0 150 -102 254q-104 106 -263 106t-264 -107q-103 -105 -103 -255v-2
q0 -150 102 -254q104 -106 263 -106z" />
    <glyph glyph-name="P" unicode="P" horiz-adv-x="668" 
d="M213 336v252h143q71 0 111 -32t40 -93v-2q0 -55 -41 -90t-110 -35h-143zM90 0h123v225h139q120 0 198 61q82 64 82 178v2q0 107 -71 170q-72 64 -195 64h-276v-700z" />
    <glyph glyph-name="Q" unicode="Q" horiz-adv-x="850" 
d="M426 101q-102 0 -171 74q-67 70 -67 175v2q0 103 66 175q67 72 170 72q102 0 172 -73q66 -71 66 -176v-2q0 -76 -36 -131l-121 110l-79 -90l120 -102q-53 -34 -120 -34zM721 -21l79 88l-80 68q71 92 71 215v2q0 150 -102 254q-104 106 -263 106t-264 -107
q-103 -105 -103 -255v-2q0 -150 102 -254q104 -106 263 -106q121 0 213 66z" />
    <glyph glyph-name="R" unicode="R" horiz-adv-x="723" 
d="M213 353v235h179q70 0 107.5 -29.5t37.5 -86.5v-2q0 -54 -39 -85.5t-105 -31.5h-180zM90 0h123v244h152h2l172 -244h145l-189 265q77 20 120 74q47 57 47 138v2q0 90 -58 151q-72 70 -202 70h-312v-700z" />
    <glyph glyph-name="S" unicode="S" horiz-adv-x="640" 
d="M335 -10q113 0 180 55q70 57 70 154v2q0 82 -57 133q-47 40 -168 72q-101 24 -133 47q-33 21 -33 63v2q0 36 30.5 59.5t83.5 23.5q92 0 190 -72l66 93q-111 88 -254 88q-104 0 -171 -56q-68 -58 -68 -147v-2q0 -92 61 -139q52 -43 172 -70q94 -22 128 -46q30 -22 30 -61
v-2q0 -40 -33.5 -64t-90.5 -24q-116 0 -221 91l-74 -88q124 -112 292 -112z" />
    <glyph glyph-name="T" unicode="T" horiz-adv-x="648" 
d="M262 0h124v586h222v114h-568v-114h222v-586z" />
    <glyph glyph-name="U" unicode="U" horiz-adv-x="757" 
d="M377 -11q141 0 219 79q82 82 82 235v397h-123v-403q0 -95 -46.5 -145t-129.5 -50q-84 0 -130.5 51.5t-46.5 148.5v398h-123v-403q0 -149 81 -230q78 -78 217 -78z" />
    <glyph glyph-name="V" unicode="V" horiz-adv-x="750" 
d="M321 -5h108l291 705h-133l-210 -538l-211 538h-136z" />
    <glyph glyph-name="W" unicode="W" horiz-adv-x="1116" 
d="M280 -5h106l172 503l172 -503h106l244 705h-129l-167 -519l-172 521h-104l-172 -521l-167 519h-133z" />
    <glyph glyph-name="X" unicode="X" horiz-adv-x="729" 
d="M37 0h141l185 265l184 -265h145l-254 358l244 342h-141l-175 -251l-174 251h-145l245 -344z" />
    <glyph glyph-name="Y" unicode="Y" horiz-adv-x="716" 
d="M296 0h124v279l278 421h-141l-198 -310l-196 310h-145l278 -424v-276z" />
    <glyph glyph-name="Z" unicode="Z" horiz-adv-x="702" 
d="M65 0h573v109h-413l413 500v91h-560v-109h400l-413 -500v-91z" />
    <glyph glyph-name="bracketleft" unicode="[" horiz-adv-x="454" 
d="M88 -130h307v95h-192v640h192v95h-307v-830z" />
    <glyph glyph-name="backslash" unicode="\" horiz-adv-x="521" 
d="M441 -128h105l-452 926h-105z" />
    <glyph glyph-name="bracketright" unicode="]" horiz-adv-x="454" 
d="M59 -130h308v830h-308v-95h192v-640h-192v-95z" />
    <glyph glyph-name="asciicircum" unicode="^" 
d="M56 493h91l102 132l102 -132h93l-151 208h-86z" />
    <glyph glyph-name="underscore" unicode="_" horiz-adv-x="600" 
d="M-2 -160h604v94h-604v-94z" />
    <glyph glyph-name="grave" unicode="`" 
d="M246 595h94l-106 164l-110 -49z" />
    <glyph glyph-name="a" unicode="a" horiz-adv-x="587" 
d="M402 221v-30q0 -50 -40 -80q-39 -31 -100 -31q-45 0 -73.5 20.5t-28.5 57.5v2q0 38 32 60t89 22q67 0 121 -21zM519 0v313q0 108 -58 165.5t-174 57.5q-105 0 -201 -44l33 -97q79 33 151 33q63 0 96.5 -29t33.5 -84v-10q-69 22 -146 22q-96 0 -153 -42q-61 -47 -61 -131
v-2q0 -76 57 -121q51 -42 131 -42q107 0 171 76v-65h120z" />
    <glyph glyph-name="b" unicode="b" horiz-adv-x="670" 
d="M348 94q-64 0 -108 46q-46 48 -46 123v2q0 74 46 123q43 46 108 46q63 0 107 -46q44 -47 44 -123v-2q0 -77 -44 -123t-107 -46zM376 -11q102 0 171 71q75 77 75 203v2q0 125 -76 203q-69 71 -170 71q-110 0 -179 -99v290h-121v-730h121v82q70 -93 179 -93z" />
    <glyph glyph-name="c" unicode="c" horiz-adv-x="571" 
d="M320 -12q73 0 123 25.5t93 73.5l-73 72q-66 -66 -137 -66q-69 0 -114 50q-44 49 -44 120v2q0 71 43 119q44 49 109 49q74 0 137 -66l75 81q-81 91 -211 91q-118 0 -196 -81q-78 -80 -78 -195v-2q0 -115 78 -193q78 -80 195 -80z" />
    <glyph glyph-name="d" unicode="d" horiz-adv-x="670" 
d="M323 94q-63 0 -107 46q-45 47 -45 123v2q0 77 45 124q43 45 107 45q63 0 107 -46q46 -48 46 -123v-2q0 -73 -46 -122q-44 -47 -107 -47zM294 -11q110 0 180 99v-88h121v730h-121v-284q-74 93 -180 93q-102 0 -170 -71q-75 -78 -75 -203v-2q0 -124 76 -203q68 -71 169 -71
z" />
    <glyph glyph-name="e" unicode="e" horiz-adv-x="604" 
d="M438 301h-271q8 63 44.5 101t92.5 38t94 -40q34 -37 40 -99zM318 -12q132 0 216 99l-71 63q-66 -63 -143 -63q-60 0 -101 35t-51 99h388q2 24 2 34q0 121 -63 199q-69 85 -190 85q-111 0 -185 -80q-73 -79 -73 -195v-2q0 -121 79 -198q76 -76 192 -76z" />
    <glyph glyph-name="f" unicode="f" horiz-adv-x="376" 
d="M103 0h121v424h138v100h-140v29q0 80 70 80q32 0 71 -13v102q-47 14 -98 14q-78 0 -120 -43.5t-42 -129.5v-38h-67v-101h67v-424z" />
    <glyph glyph-name="g" unicode="g" horiz-adv-x="670" 
d="M321 144q-63 0 -106 41q-44 42 -44 105v2q0 66 44 105q43 40 106 40q66 0 109 -40q46 -43 46 -106v-2q0 -61 -46 -104q-44 -41 -109 -41zM311 -162q146 0 217 71q67 67 67 199v420h-121v-79q-75 90 -185 90q-98 0 -166 -65q-74 -69 -74 -183v-2q0 -112 74 -181
q69 -66 166 -66q111 0 186 97v-41q0 -80 -43 -121t-124 -41q-98 0 -188 56l-45 -91q104 -63 236 -63z" />
    <glyph glyph-name="h" unicode="h" horiz-adv-x="620" 
d="M76 0h121v298q0 61 32.5 96t86.5 35t83.5 -33.5t29.5 -95.5v-300h121v336q0 94 -49.5 148.5t-138.5 54.5q-56 0 -100 -28q-35 -22 -65 -65v284h-121v-730z" />
    <glyph glyph-name="i" unicode="i" horiz-adv-x="286" 
d="M83 0h121v528h-121v-528zM78 609h130v115h-130v-115z" />
    <glyph glyph-name="j" unicode="j" horiz-adv-x="286" 
d="M50 -163q154 0 154 156v535h-121v-528q0 -64 -57 -64q-16 0 -34 3v-97q32 -5 58 -5zM78 609h130v115h-130v-115z" />
    <glyph glyph-name="k" unicode="k" horiz-adv-x="582" 
d="M76 0h121v151l74 77l159 -228h140l-217 313l210 215h-147l-219 -234v436h-121v-730z" />
    <glyph glyph-name="l" unicode="l" horiz-adv-x="286" 
d="M83 0h121v730h-121v-730z" />
    <glyph glyph-name="m" unicode="m" horiz-adv-x="950" 
d="M76 0h121v297q0 62 30.5 97t82.5 35q51 0 79 -33t28 -95v-301h121v298q0 62 31 96.5t82 34.5t79 -33t28 -96v-300h121v337q0 96 -49 149t-136 53q-108 0 -179 -93q-47 93 -157 93q-55 0 -98 -28q-34 -22 -63 -63v80h-121v-528z" />
    <glyph glyph-name="n" unicode="n" horiz-adv-x="620" 
d="M76 0h121v298q0 61 32.5 96t86.5 35t83.5 -33.5t29.5 -95.5v-300h121v336q0 94 -49.5 148.5t-138.5 54.5q-56 0 -100 -28q-35 -22 -65 -65v82h-121v-528z" />
    <glyph glyph-name="o" unicode="o" horiz-adv-x="657" 
d="M329 93q-70 0 -115 51q-46 49 -46 119v2q0 73 43 119q46 49 116 49t117 -50q45 -50 45 -120v-2q0 -70 -43 -118q-45 -50 -117 -50zM327 -12q121 0 203 82q80 80 80 193v2q0 115 -79 194q-80 80 -202 80q-120 0 -201 -81t-81 -195v-2q0 -115 80 -193q82 -80 200 -80z" />
    <glyph glyph-name="p" unicode="p" horiz-adv-x="670" 
d="M348 94q-64 0 -108 46q-46 48 -46 123v2q0 74 46 123q43 46 108 46q63 0 107 -46q44 -47 44 -123v-2q0 -77 -44 -123t-107 -46zM76 -160h121v242q70 -93 179 -93q102 0 171 71q75 77 75 203v2q0 125 -76 203q-69 71 -170 71q-110 0 -179 -99v88h-121v-688z" />
    <glyph glyph-name="q" unicode="q" horiz-adv-x="670" 
d="M323 94q-63 0 -107 46q-45 47 -45 123v2q0 77 45 124q43 45 107 45q63 0 107 -46q46 -48 46 -123v-2q0 -73 -46 -122q-44 -47 -107 -47zM474 -160h121v688h-121v-82q-74 93 -180 93q-102 0 -170 -71q-75 -78 -75 -203v-2q0 -124 76 -203q68 -71 169 -71q110 0 180 99
v-248z" />
    <glyph glyph-name="r" unicode="r" horiz-adv-x="413" 
d="M76 0h121v201q0 102 50 157q48 52 130 52h7v128q-131 6 -187 -129v119h-121v-528z" />
    <glyph glyph-name="s" unicode="s" 
d="M257 -10q86 0 140 42q56 43 56 124v2q0 63 -53 104q-39 28 -111 50q-54 16 -82 31q-37 19 -37 43v2q0 24 19.5 38.5t54.5 14.5q67 0 149 -50l48 86q-91 60 -194 60q-81 0 -133 -43q-55 -45 -55 -118v-2q0 -68 54 -107q34 -26 111 -48q60 -17 83 -29q35 -18 35 -45v-2
q0 -26 -21.5 -41.5t-60.5 -15.5q-87 0 -173 65l-54 -82q102 -79 224 -79z" />
    <glyph glyph-name="t" unicode="t" horiz-adv-x="410" 
d="M253 -9q60 0 109 27v99q-36 -18 -75 -18q-65 0 -65 66v259h142v104h-142v145h-121v-145h-67v-104h67v-278q0 -84 43 -121q38 -34 109 -34z" />
    <glyph glyph-name="u" unicode="u" horiz-adv-x="620" 
d="M258 -11q101 0 165 93v-82h121v528h-121v-298q0 -61 -32.5 -96t-86.5 -35t-83.5 33.5t-29.5 95.5v300h-121v-336q0 -94 49.5 -148.5t138.5 -54.5z" />
    <glyph glyph-name="v" unicode="v" horiz-adv-x="595" 
d="M243 -4h109l216 532h-127l-143 -388l-142 388h-130z" />
    <glyph glyph-name="w" unicode="w" horiz-adv-x="861" 
d="M203 -4h108l119 361l118 -361h108l173 532h-121l-108 -362l-118 364h-103l-117 -364l-106 362h-124z" />
    <glyph glyph-name="x" unicode="x" horiz-adv-x="580" 
d="M30 0h129l129 185l130 -185h132l-195 271l187 257h-129l-122 -174l-122 174h-132l187 -260z" />
    <glyph glyph-name="y" unicode="y" horiz-adv-x="596" 
d="M184 -163q63 0 103 34q40 33 71 114l210 543h-126l-137 -392l-150 392h-129l220 -528q-15 -35 -31.5 -48t-43.5 -13q-33 0 -71 20l-41 -90q59 -32 125 -32z" />
    <glyph glyph-name="z" unicode="z" horiz-adv-x="560" 
d="M52 0h459v99h-305l305 346v83h-448v-99h294l-305 -346v-83z" />
    <glyph glyph-name="braceleft" unicode="{" horiz-adv-x="487" 
d="M416 -141l21 80q-85 23 -113 54q-23 24 -23 83q0 22 1 37q1 14 1 37q0 57 -25 88t-79 49q53 16 78.5 48t25.5 89q0 23 -1 38q-1 14 -1 36q0 59 23 84q29 31 113 53l-21 80q-128 -22 -181 -74q-46 -45 -46 -126q0 -9 1 -15v-20q0 -14 1 -21v-16q0 -60 -25.5 -85t-87.5 -25
h-26v-92h26q62 0 87.5 -25t25.5 -85v-16q-1 -7 -1 -20v-20q-1 -7 -1 -16q0 -83 46 -126q53 -52 181 -74z" />
    <glyph glyph-name="bar" unicode="|" horiz-adv-x="331" 
d="M117 -128h97v926h-97v-926z" />
    <glyph glyph-name="braceright" unicode="}" horiz-adv-x="487" 
d="M50 -61l21 -80q129 23 182 74q45 42 45 126v16q-1 6 -1 20v20q-1 7 -1 16q0 60 25.5 85t87.5 25h26v92h-26q-62 0 -87.5 25t-25.5 85q0 9 1 16v21q0 13 1 20v15q0 82 -45 126q-53 51 -182 74l-21 -80q84 -22 113 -53q23 -25 23 -84q0 -22 -1 -36q-1 -15 -1 -38
q0 -57 25 -88t79 -49q-53 -16 -78.5 -48t-25.5 -89q0 -23 1 -37q1 -15 1 -37q0 -59 -23 -83q-28 -31 -113 -54z" />
    <glyph glyph-name="asciitilde" unicode="~" horiz-adv-x="495" 
d="M59 250l67 -21q12 28 23 39t32 11q16 0 64 -20t79 -20q44 0 69 30t43 95l-67 20q-12 -28 -23 -39t-32 -11q-16 0 -64 20t-79 20q-44 0 -69 -30t-43 -94z" />
    <glyph glyph-name="nbspace" unicode="&#xa0;" horiz-adv-x="300" 
 />
    <glyph glyph-name="exclamdown" unicode="&#xa1;" horiz-adv-x="302" 
d="M80 0h142v35l-37 444h-67l-38 -444v-35zM85 563h133v137h-133v-137z" />
    <glyph glyph-name="cent" unicode="&#xa2;" horiz-adv-x="581" 
d="M318 525l-63 -323q-40 21 -62.5 61.5t-22.5 91.5v2q0 71 42 118q44 49 106 50zM210 -6h88l17 86h6q128 0 217 101l-70 69q-67 -64 -138 -65l65 326q34 -15 69 -50l73 78q-53 58 -118 78l18 89h-88l-15 -76h-9q-118 0 -195 -80q-78 -80 -78 -195v-2q0 -89 50 -159
q47 -68 128 -98z" />
    <glyph glyph-name="sterling" unicode="&#xa3;" horiz-adv-x="644" 
d="M63 0h528v107h-325v171h249v104h-249v89q0 60 34 97q28 28 73 28q40 0 68.5 -17.5t57.5 -55.5l94 75q-40 54 -86 80q-58 32 -135 32q-108 0 -168 -62q-62 -62 -62 -174v-92h-79v-104h79v-176l-79 -24v-78z" />
    <glyph glyph-name="currency" unicode="&#xa4;" horiz-adv-x="720" 
d="M434 -12q79 0 143 40q52 32 99 101l-88 64q-35 -47 -69 -70q-37 -25 -84 -25q-58 0 -100 33.5t-63 93.5h216v85h-234q-2 26 -2 40v2q0 17 2 43h234v85h-215q21 58 61 90t93 32q50 0 85 -22t69 -69l93 69q-48 65 -96 95q-63 37 -148 37q-102 0 -180 -65q-73 -63 -104 -167
h-94v-85h78q-2 -14 -2 -22v-23v-2v-19q0 -12 1 -19h-77v-85h91q28 -106 104 -171q77 -66 187 -66z" />
    <glyph glyph-name="yen" unicode="&#xa5;" horiz-adv-x="686" 
d="M284 0h118v102h193v89h-193v73h193v89h-160l232 347h-139l-183 -293l-183 293h-143l231 -347h-159v-89h193v-73h-193v-89h193v-102z" />
    <glyph glyph-name="section" unicode="&#xa7;" horiz-adv-x="632" 
d="M388 278q-20 0 -41 4q-32 5 -81 18.5t-72 27.5q-27 17 -27 38v2q0 23 21.5 38.5t55.5 15.5q19 0 42 -4q101 -16 153 -46q26 -17 26 -38v-2q0 -23 -21.5 -38.5t-55.5 -15.5zM326 -10q92 0 144 39.5t52 106.5v2q0 62 -55 95q107 28 107 116v2q0 54 -50 87q-51 34 -166 59
q-76 17 -106 34q-26 14 -26 36v2q0 22 21 35.5t60 13.5q83 0 161 -71l69 68q-89 95 -231 95q-92 0 -144 -39.5t-52 -106.5v-2q0 -60 55 -95q-107 -28 -107 -116v-2q0 -54 50 -87q51 -34 166 -59q78 -18 105 -33t27 -37v-2q0 -22 -20.5 -35.5t-60.5 -13.5q-83 0 -161 71
l-69 -68q89 -95 231 -95z" />
    <glyph glyph-name="dieresis" unicode="&#xa8;" 
d="M89 595h123v118h-123v-118zM288 595h123v118h-123v-118z" />
    <glyph glyph-name="copyright" unicode="&#xa9;" horiz-adv-x="830" 
d="M419 159q91 0 154 68l-48 47q-50 -47 -104 -47q-52 0 -84 38q-34 37 -34 89v2q0 51 34 90q32 37 84 37q54 0 102 -45l47 54q-61 59 -149 59q-84 0 -139 -58t-55 -138v-2q0 -80 55 -137q54 -57 137 -57zM414 24q-137 0 -230 95t-93 229v2q0 134 94 230t231 96
q138 0 231 -95q92 -94 92 -229v-2q0 -135 -93 -230q-94 -96 -232 -96zM414 -12q152 0 258 108q105 107 105 254v2q0 148 -104 254q-106 106 -257 106q-153 0 -258 -107t-105 -255v-2q0 -149 105 -254q104 -106 256 -106z" />
    <glyph glyph-name="ordfeminine" unicode="&#xaa;" horiz-adv-x="390" 
d="M177 454q-24 0 -38 11t-14 31v2q0 21 17 33t47 12q36 0 63 -11v-18q0 -26 -21.5 -43t-53.5 -17zM53 282h270v58h-270v-58zM159 403q57 0 92 40v-34h68v172q0 59 -31 89q-32 33 -97 33q-56 0 -111 -25l19 -54q48 19 83 19q70 0 70 -61v-5q-36 11 -76 11q-55 0 -87.5 -23.5
t-32.5 -69.5v-2q0 -43 31 -67q29 -23 72 -23z" />
    <glyph glyph-name="guillemetleft" unicode="&#xab;" horiz-adv-x="606" 
d="M210 41l92 47l-132 177l132 176l-92 47l-166 -220v-8zM461 41l92 47l-132 177l132 176l-92 47l-165 -220v-8z" />
    <glyph glyph-name="registered" unicode="&#xae;" horiz-adv-x="830" 
d="M341 365v120h94q75 0 75 -59v-2q0 -27 -20 -43t-55 -16h-94zM269 171h72v131h77h2l92 -131h86l-102 143q41 12 64.5 41t23.5 73v2q0 53 -37.5 86.5t-108.5 33.5h-169v-379zM414 24q-137 0 -230 95t-93 229v2q0 134 94 230t231 96q138 0 231 -95q92 -94 92 -229v-2
q0 -135 -93 -230q-94 -96 -232 -96zM414 -12q152 0 258 108q105 107 105 254v2q0 148 -104 254q-106 106 -257 106q-153 0 -258 -107t-105 -255v-2q0 -149 105 -254q104 -106 256 -106z" />
    <glyph glyph-name="macron" unicode="&#xaf;" 
d="M79 600h342v89h-342v-89z" />
    <glyph glyph-name="degree" unicode="&#xb0;" horiz-adv-x="471" 
d="M235 447q-40 0 -67 29q-27 27 -27 67v2q0 40 27 67q26 28 67 28q40 0 68 -28q27 -27 27 -67v-2q0 -40 -27 -67q-29 -29 -68 -29zM235 381q65 0 117 49q50 48 50 113v2q0 66 -50 113q-53 48 -117 48q-65 0 -116 -48q-50 -47 -50 -113v-2q0 -65 50 -113q51 -49 116 -49z
" />
    <glyph glyph-name="plusminus" unicode="&#xb1;" horiz-adv-x="610" 
d="M311 -12q114 0 183 61q66 58 66 150v2q0 61 -35 101q-32 36 -88 57q104 51 104 164v2q0 82 -66 134q-67 53 -175 53q-85 0 -144 -35q-58 -33 -103 -94l86 -70q38 45 74.5 66.5t84.5 21.5q56 0 88.5 -25.5t32.5 -68.5v-2q0 -45 -36 -72.5t-96 -27.5h-78v-104h75
q73 0 113.5 -25.5t40.5 -73.5v-2q0 -46 -34 -73.5t-91 -27.5q-110 0 -189 90l-85 -79q107 -122 272 -122z" />
    <glyph glyph-name="acute" unicode="&#xb4;" 
d="M160 595h94l122 115l-110 49z" />
    <glyph glyph-name="paragraph" unicode="&#xb6;" horiz-adv-x="557" 
d="M346 0h124v700h-159q-123 0 -195 -60q-76 -63 -76 -167v-2q0 -108 83 -169q78 -58 205 -58h18v-244z" />
    <glyph glyph-name="periodcentered" unicode="&#xb7;" horiz-adv-x="269" 
d="M68 238h133v137h-133v-137z" />
    <glyph glyph-name="cedilla" unicode="&#xb8;" 
d="M237 -165l75 175h-91l-90 -131z" />
    <glyph glyph-name="ordmasculine" unicode="&#xba;" horiz-adv-x="390" 
d="M196 464q-35 0 -58.5 26t-23.5 63v2q0 37 22 62.5t58 25.5q35 0 58.5 -26t23.5 -63v-2q0 -37 -22 -62.5t-58 -25.5zM51 282h288v58h-288v-58zM194 402q64 0 109 45q43 43 43 106v2q0 63 -43 106q-44 44 -107 44q-64 0 -108 -44t-44 -107v-2q0 -63 43 -106q44 -44 107 -44
z" />
    <glyph glyph-name="guillemetright" unicode="&#xbb;" horiz-adv-x="606" 
d="M145 41l165 219v8l-165 220l-92 -48l132 -177l-132 -176zM396 41l166 219v8l-166 220l-92 -48l132 -177l-132 -176z" />
    <glyph glyph-name="questiondown" unicode="&#xbf;" horiz-adv-x="541" 
d="M276 -9q143 0 241 111l-75 80q-74 -79 -163 -79q-53 0 -84 26t-31 69v2q0 105 185 112l5 5l-20 162h-81l-10 -81q-90 -14 -142 -61q-59 -52 -59 -141v-2q0 -93 65 -148q61 -55 169 -55zM229 563h134v137h-134v-137z" />
    <glyph glyph-name="Agrave" unicode="&#xc0;" horiz-adv-x="790" 
d="M351 758h94l-106 164l-110 -49zM273 278l120 280l121 -280h-241zM30 0h126l72 169h331l71 -169h130l-308 705h-114z" />
    <glyph glyph-name="Aacute" unicode="&#xc1;" horiz-adv-x="790" 
d="M345 758h94l122 115l-110 49zM273 278l120 280l121 -280h-241zM30 0h126l72 169h331l71 -169h130l-308 705h-114z" />
    <glyph glyph-name="Acircumflex" unicode="&#xc2;" horiz-adv-x="790" 
d="M223 757h94l77 67l77 -67h96l-116 146h-112zM273 278l120 280l121 -280h-241zM30 0h126l72 169h331l71 -169h130l-308 705h-114z" />
    <glyph glyph-name="Atilde" unicode="&#xc3;" horiz-adv-x="790" 
d="M206 768l67 -20q12 28 23 39t32 11q15 0 65 -20q48 -20 79 -20q44 0 69 30t43 94l-67 21q-12 -28 -23 -39t-32 -11q-16 0 -64 20q-50 20 -80 20q-44 0 -69 -30t-43 -95zM273 278l120 280l121 -280h-241zM30 0h126l72 169h331l71 -169h130l-308 705h-114z" />
    <glyph glyph-name="Adieresis" unicode="&#xc4;" horiz-adv-x="790" 
d="M234 758h123v118h-123v-118zM433 758h123v118h-123v-118zM273 278l120 280l121 -280h-241zM30 0h126l72 169h331l71 -169h130l-308 705h-114z" />
    <glyph glyph-name="Aring" unicode="&#xc5;" horiz-adv-x="790" 
d="M273 278l120 280l121 -280h-241zM395 710q-26 0 -44 18t-18 43v2q0 25 18 43t44 18t44 -18t18 -43v-2q0 -25 -18 -43t-44 -18zM30 0h126l72 169h331l71 -169h130l-298 684q47 35 47 87v2q0 43 -34 77q-34 32 -80 32q-47 0 -79 -32q-35 -33 -35 -77v-2q0 -52 47 -87z" />
    <glyph glyph-name="AE" unicode="&#xc6;" horiz-adv-x="1045" 
d="M291 278l176 315h20v-315h-196zM12 0h127l93 169h255v-169h502v110h-379v188h329v110h-329v182h374v110h-581z" />
    <glyph glyph-name="Ccedilla" unicode="&#xc7;" horiz-adv-x="738" 
d="M371 -165l66 154q86 4 151 37q53 27 111 86l-79 80q-49 -46 -95 -68.5t-106 -22.5q-99 0 -166 73q-65 71 -65 176v2q0 104 65 175q67 72 166 72q102 0 196 -87l79 91q-53 51 -114 79q-69 30 -160 30q-157 0 -260 -106q-101 -104 -101 -256v-2q0 -134 80 -231
q81 -98 206 -122l-79 -116z" />
    <glyph glyph-name="Egrave" unicode="&#xc8;" horiz-adv-x="670" 
d="M327 758h94l-106 164l-110 -49zM90 0h524v110h-401v188h351v110h-351v182h396v110h-519v-700z" />
    <glyph glyph-name="Eacute" unicode="&#xc9;" horiz-adv-x="670" 
d="M277 758h94l122 115l-110 49zM90 0h524v110h-401v188h351v110h-351v182h396v110h-519v-700z" />
    <glyph glyph-name="Ecircumflex" unicode="&#xca;" horiz-adv-x="670" 
d="M175 758h94l77 67l77 -67h96l-116 146h-112zM90 0h524v110h-401v188h351v110h-351v182h396v110h-519v-700z" />
    <glyph glyph-name="Edieresis" unicode="&#xcb;" horiz-adv-x="670" 
d="M186 758h123v118h-123v-118zM385 758h123v118h-123v-118zM90 0h524v110h-401v188h351v110h-351v182h396v110h-519v-700z" />
    <glyph glyph-name="Igrave" unicode="&#xcc;" horiz-adv-x="317" 
d="M116 758h94l-106 164l-110 -49zM97 0h123v700h-123v-700z" />
    <glyph glyph-name="Iacute" unicode="&#xcd;" horiz-adv-x="317" 
d="M108 758h94l122 115l-110 49zM97 0h123v700h-123v-700z" />
    <glyph glyph-name="Icircumflex" unicode="&#xce;" horiz-adv-x="317" 
d="M-13 758h94l77 67l77 -67h96l-116 146h-112zM97 0h123v700h-123v-700z" />
    <glyph glyph-name="Idieresis" unicode="&#xcf;" horiz-adv-x="317" 
d="M-2 758h123v118h-123v-118zM197 758h123v118h-123v-118zM97 0h123v700h-123v-700z" />
    <glyph glyph-name="Eth" unicode="&#xd0;" horiz-adv-x="812" 
d="M242 112v185h176v110h-176v181h139q110 0 177 -67q66 -66 66 -171v-2q0 -103 -66 -169q-67 -67 -177 -67h-139zM120 0h261q163 0 269 101q103 98 103 249v2q0 150 -103 248q-105 100 -269 100h-261v-293h-75v-110h75v-297z" />
    <glyph glyph-name="Ntilde" unicode="&#xd1;" horiz-adv-x="790" 
d="M206 768l67 -20q12 28 23 39t32 11q15 0 65 -20q48 -20 79 -20q44 0 69 30t43 94l-67 21q-12 -28 -23 -39t-32 -11q-16 0 -64 20q-50 20 -80 20q-44 0 -69 -30t-43 -95zM90 0h121v498l386 -498h103v700h-121v-484l-375 484h-114v-700z" />
    <glyph glyph-name="Ograve" unicode="&#xd2;" horiz-adv-x="850" 
d="M374 758h94l-106 164l-110 -49zM426 101q-102 0 -171 74q-67 70 -67 175v2q0 103 66 175q67 72 170 72q102 0 172 -73q66 -71 66 -176v-2q0 -103 -66 -174q-67 -73 -170 -73zM424 -12q158 0 264 108q103 105 103 254v2q0 150 -102 254q-104 106 -263 106t-264 -107
q-103 -105 -103 -255v-2q0 -150 102 -254q104 -106 263 -106z" />
    <glyph glyph-name="Oacute" unicode="&#xd3;" horiz-adv-x="850" 
d="M382 758h94l122 115l-110 49zM426 101q-102 0 -171 74q-67 70 -67 175v2q0 103 66 175q67 72 170 72q102 0 172 -73q66 -71 66 -176v-2q0 -103 -66 -174q-67 -73 -170 -73zM424 -12q158 0 264 108q103 105 103 254v2q0 150 -102 254q-104 106 -263 106t-264 -107
q-103 -105 -103 -255v-2q0 -150 102 -254q104 -106 263 -106z" />
    <glyph glyph-name="Ocircumflex" unicode="&#xd4;" horiz-adv-x="850" 
d="M253 758h94l77 67l77 -67h96l-116 146h-112zM426 101q-102 0 -171 74q-67 70 -67 175v2q0 103 66 175q67 72 170 72q102 0 172 -73q66 -71 66 -176v-2q0 -103 -66 -174q-67 -73 -170 -73zM424 -12q158 0 264 108q103 105 103 254v2q0 150 -102 254q-104 106 -263 106
t-264 -107q-103 -105 -103 -255v-2q0 -150 102 -254q104 -106 263 -106z" />
    <glyph glyph-name="Otilde" unicode="&#xd5;" horiz-adv-x="850" 
d="M236 768l67 -20q12 28 23 39t32 11q15 0 65 -20q48 -20 79 -20q44 0 69 30t43 94l-67 21q-12 -28 -23 -39t-32 -11q-16 0 -64 20q-50 20 -80 20q-44 0 -69 -30t-43 -95zM426 101q-102 0 -171 74q-67 70 -67 175v2q0 103 66 175q67 72 170 72q102 0 172 -73
q66 -71 66 -176v-2q0 -103 -66 -174q-67 -73 -170 -73zM424 -12q158 0 264 108q103 105 103 254v2q0 150 -102 254q-104 106 -263 106t-264 -107q-103 -105 -103 -255v-2q0 -150 102 -254q104 -106 263 -106z" />
    <glyph glyph-name="Odieresis" unicode="&#xd6;" horiz-adv-x="850" 
d="M264 758h123v118h-123v-118zM463 758h123v118h-123v-118zM426 101q-102 0 -171 74q-67 70 -67 175v2q0 103 66 175q67 72 170 72q102 0 172 -73q66 -71 66 -176v-2q0 -103 -66 -174q-67 -73 -170 -73zM424 -12q158 0 264 108q103 105 103 254v2q0 150 -102 254
q-104 106 -263 106t-264 -107q-103 -105 -103 -255v-2q0 -150 102 -254q104 -106 263 -106z" />
    <glyph glyph-name="Oslash" unicode="&#xd8;" horiz-adv-x="850" 
d="M426 99q-72 0 -128 40l320 360q46 -64 46 -149v-2q0 -105 -66 -176q-68 -73 -172 -73zM552 561l-320 -360q-46 64 -46 149v2q0 104 67 176q68 73 171 73q72 0 128 -40zM424 -12q158 0 264 108q103 105 103 254v2q0 142 -91 241l99 112h-121l-48 -53q-88 60 -204 60
q-159 0 -264 -107q-103 -105 -103 -255v-2q0 -143 91 -242l-99 -111h121l48 53q88 -60 204 -60z" />
    <glyph glyph-name="Ugrave" unicode="&#xd9;" horiz-adv-x="757" 
d="M341 753h94l-106 164l-110 -49zM377 -11q141 0 219 79q82 82 82 235v397h-123v-403q0 -95 -46.5 -145t-129.5 -50q-84 0 -130.5 51.5t-46.5 148.5v398h-123v-403q0 -149 81 -230q78 -78 217 -78z" />
    <glyph glyph-name="Uacute" unicode="&#xda;" horiz-adv-x="757" 
d="M322 753h94l122 115l-110 49zM377 -11q141 0 219 79q82 82 82 235v397h-123v-403q0 -95 -46.5 -145t-129.5 -50q-84 0 -130.5 51.5t-46.5 148.5v398h-123v-403q0 -149 81 -230q78 -78 217 -78z" />
    <glyph glyph-name="Ucircumflex" unicode="&#xdb;" horiz-adv-x="757" 
d="M207 757h94l77 67l77 -67h96l-116 146h-112zM377 -11q141 0 219 79q82 82 82 235v397h-123v-403q0 -95 -46.5 -145t-129.5 -50q-84 0 -130.5 51.5t-46.5 148.5v398h-123v-403q0 -149 81 -230q78 -78 217 -78z" />
    <glyph glyph-name="Udieresis" unicode="&#xdc;" horiz-adv-x="757" 
d="M218 757h123v118h-123v-118zM417 757h123v118h-123v-118zM377 -11q141 0 219 79q82 82 82 235v397h-123v-403q0 -95 -46.5 -145t-129.5 -50q-84 0 -130.5 51.5t-46.5 148.5v398h-123v-403q0 -149 81 -230q78 -78 217 -78z" />
    <glyph glyph-name="Yacute" unicode="&#xdd;" horiz-adv-x="716" 
d="M311 753h94l122 115l-110 49zM296 0h124v279l278 421h-141l-198 -310l-196 310h-145l278 -424v-276z" />
    <glyph glyph-name="Thorn" unicode="&#xde;" horiz-adv-x="673" 
d="M213 226v253h143q71 0 111 -32t40 -93v-2q0 -56 -41 -91t-110 -35h-143zM90 0h123v116h139q122 0 198 60q82 64 82 179v2q0 106 -71 169q-72 64 -195 64h-153v110h-123v-700z" />
    <glyph glyph-name="germandbls" unicode="&#xdf;" horiz-adv-x="620" 
d="M296 91v-93q125 -4 201 49q74 54 74 149v2q0 68 -47 117q-39 39 -105 61q52 28 77 64q33 45 33 107v2q0 81 -56 134q-59 54 -159 54q-109 0 -174 -63q-64 -64 -64 -172v-502h120v506q0 59 30.5 93.5t81.5 34.5q46 0 73.5 -26t27.5 -70v-2q0 -84 -113 -139v-82
q71 -9 112.5 -38t41.5 -76v-2q0 -50 -40 -78t-114 -30z" />
    <glyph glyph-name="agrave" unicode="&#xe0;" horiz-adv-x="587" 
d="M257 595h94l-106 164l-110 -49zM402 221v-30q0 -50 -40 -80q-39 -31 -100 -31q-45 0 -73.5 20.5t-28.5 57.5v2q0 38 32 60t89 22q67 0 121 -21zM519 0v313q0 108 -58 165.5t-174 57.5q-105 0 -201 -44l33 -97q79 33 151 33q63 0 96.5 -29t33.5 -84v-10q-69 22 -146 22
q-96 0 -153 -42q-61 -47 -61 -131v-2q0 -76 57 -121q51 -42 131 -42q107 0 171 76v-65h120z" />
    <glyph glyph-name="aacute" unicode="&#xe1;" horiz-adv-x="587" 
d="M235 595h94l122 115l-110 49zM402 221v-30q0 -50 -40 -80q-39 -31 -100 -31q-45 0 -73.5 20.5t-28.5 57.5v2q0 38 32 60t89 22q67 0 121 -21zM519 0v313q0 108 -58 165.5t-174 57.5q-105 0 -201 -44l33 -97q79 33 151 33q63 0 96.5 -29t33.5 -84v-10q-69 22 -146 22
q-96 0 -153 -42q-61 -47 -61 -131v-2q0 -76 57 -121q51 -42 131 -42q107 0 171 76v-65h120z" />
    <glyph glyph-name="acircumflex" unicode="&#xe2;" horiz-adv-x="587" 
d="M121 595h94l77 67l77 -67h96l-116 146h-112zM402 221v-30q0 -50 -40 -80q-39 -31 -100 -31q-45 0 -73.5 20.5t-28.5 57.5v2q0 38 32 60t89 22q67 0 121 -21zM519 0v313q0 108 -58 165.5t-174 57.5q-105 0 -201 -44l33 -97q79 33 151 33q63 0 96.5 -29t33.5 -84v-10
q-69 22 -146 22q-96 0 -153 -42q-61 -47 -61 -131v-2q0 -76 57 -121q51 -42 131 -42q107 0 171 76v-65h120z" />
    <glyph glyph-name="atilde" unicode="&#xe3;" horiz-adv-x="587" 
d="M105 605l67 -20q12 28 23 39t32 11q15 0 65 -20q48 -20 79 -20q44 0 69 30t43 94l-67 21q-12 -28 -23 -39t-32 -11q-16 0 -64 20q-50 20 -80 20q-44 0 -69 -30t-43 -95zM402 221v-30q0 -50 -40 -80q-39 -31 -100 -31q-45 0 -73.5 20.5t-28.5 57.5v2q0 38 32 60t89 22
q67 0 121 -21zM519 0v313q0 108 -58 165.5t-174 57.5q-105 0 -201 -44l33 -97q79 33 151 33q63 0 96.5 -29t33.5 -84v-10q-69 22 -146 22q-96 0 -153 -42q-61 -47 -61 -131v-2q0 -76 57 -121q51 -42 131 -42q107 0 171 76v-65h120z" />
    <glyph glyph-name="adieresis" unicode="&#xe4;" horiz-adv-x="587" 
d="M132 595h123v118h-123v-118zM331 595h123v118h-123v-118zM402 221v-30q0 -50 -40 -80q-39 -31 -100 -31q-45 0 -73.5 20.5t-28.5 57.5v2q0 38 32 60t89 22q67 0 121 -21zM519 0v313q0 108 -58 165.5t-174 57.5q-105 0 -201 -44l33 -97q79 33 151 33q63 0 96.5 -29
t33.5 -84v-10q-69 22 -146 22q-96 0 -153 -42q-61 -47 -61 -131v-2q0 -76 57 -121q51 -42 131 -42q107 0 171 76v-65h120z" />
    <glyph glyph-name="aring" unicode="&#xe5;" horiz-adv-x="587" 
d="M293 641q-26 0 -44 18t-18 43v2q0 25 18 43t44 18t44 -18t18 -43v-2q0 -25 -18 -43t-44 -18zM293 593q46 0 80 32q34 34 34 77v2q0 43 -34 77q-34 32 -80 32q-47 0 -79 -32q-35 -33 -35 -77v-2q0 -44 35 -77q32 -32 79 -32zM402 221v-30q0 -50 -40 -80q-39 -31 -100 -31
q-45 0 -73.5 20.5t-28.5 57.5v2q0 38 32 60t89 22q67 0 121 -21zM519 0v313q0 108 -58 165.5t-174 57.5q-105 0 -201 -44l33 -97q79 33 151 33q63 0 96.5 -29t33.5 -84v-10q-69 22 -146 22q-96 0 -153 -42q-61 -47 -61 -131v-2q0 -76 57 -121q51 -42 131 -42q107 0 171 76
v-65h120z" />
    <glyph glyph-name="ae" unicode="&#xe6;" horiz-adv-x="952" 
d="M260 80q-44 0 -72 20.5t-28 57.5v2q0 38 31.5 60t87.5 22q67 0 118 -18q4 -38 19 -76q-74 -68 -156 -68zM786 301h-272q8 63 45 101t93 38t94 -40q34 -37 40 -99zM240 -11q112 0 221 89q77 -90 204 -90q133 0 217 99l-71 63q-66 -63 -144 -63q-59 0 -99.5 35t-51.5 99
h388q1 6 1 18v16q0 121 -63 199q-69 85 -187 85q-116 0 -185 -90q-50 87 -185 87q-103 0 -199 -44l33 -97q79 33 149 33q129 0 129 -113v-10q-69 22 -145 22q-94 0 -151 -42q-61 -47 -61 -131v-2q0 -77 59 -121q54 -42 141 -42z" />
    <glyph glyph-name="ccedilla" unicode="&#xe7;" horiz-adv-x="571" 
d="M276 -165l65 154q63 3 108.5 28t86.5 70l-73 72q-66 -66 -137 -66q-69 0 -114 50q-44 49 -44 120v2q0 71 43 119q44 49 109 49q74 0 137 -66l75 81q-81 91 -211 91q-118 0 -196 -81q-78 -80 -78 -195v-2q0 -95 57 -168q56 -73 146 -96l-80 -118z" />
    <glyph glyph-name="egrave" unicode="&#xe8;" horiz-adv-x="604" 
d="M261 595h94l-106 164l-110 -49zM438 301h-271q8 63 44.5 101t92.5 38t94 -40q34 -37 40 -99zM318 -12q132 0 216 99l-71 63q-66 -63 -143 -63q-60 0 -101 35t-51 99h388q2 24 2 34q0 121 -63 199q-69 85 -190 85q-111 0 -185 -80q-73 -79 -73 -195v-2q0 -121 79 -198
q76 -76 192 -76z" />
    <glyph glyph-name="eacute" unicode="&#xe9;" horiz-adv-x="604" 
d="M249 595h94l122 115l-110 49zM438 301h-271q8 63 44.5 101t92.5 38t94 -40q34 -37 40 -99zM318 -12q132 0 216 99l-71 63q-66 -63 -143 -63q-60 0 -101 35t-51 99h388q2 24 2 34q0 121 -63 199q-69 85 -190 85q-111 0 -185 -80q-73 -79 -73 -195v-2q0 -121 79 -198
q76 -76 192 -76z" />
    <glyph glyph-name="ecircumflex" unicode="&#xea;" horiz-adv-x="604" 
d="M131 595h94l77 67l77 -67h96l-116 146h-112zM438 301h-271q8 63 44.5 101t92.5 38t94 -40q34 -37 40 -99zM318 -12q132 0 216 99l-71 63q-66 -63 -143 -63q-60 0 -101 35t-51 99h388q2 24 2 34q0 121 -63 199q-69 85 -190 85q-111 0 -185 -80q-73 -79 -73 -195v-2
q0 -121 79 -198q76 -76 192 -76z" />
    <glyph glyph-name="edieresis" unicode="&#xeb;" horiz-adv-x="604" 
d="M142 595h123v118h-123v-118zM341 595h123v118h-123v-118zM438 301h-271q8 63 44.5 101t92.5 38t94 -40q34 -37 40 -99zM318 -12q132 0 216 99l-71 63q-66 -63 -143 -63q-60 0 -101 35t-51 99h388q2 24 2 34q0 121 -63 199q-69 85 -190 85q-111 0 -185 -80
q-73 -79 -73 -195v-2q0 -121 79 -198q76 -76 192 -76z" />
    <glyph glyph-name="igrave" unicode="&#xec;" horiz-adv-x="286" 
d="M101 595h94l-106 164l-110 -49zM83 0h121v528h-121v-528z" />
    <glyph glyph-name="iacute" unicode="&#xed;" horiz-adv-x="286" 
d="M91 595h94l122 115l-110 49zM83 0h121v528h-121v-528z" />
    <glyph glyph-name="icircumflex" unicode="&#xee;" horiz-adv-x="286" 
d="M-29 595h94l77 67l77 -67h96l-116 146h-112zM83 0h121v528h-121v-528z" />
    <glyph glyph-name="idieresis" unicode="&#xef;" horiz-adv-x="286" 
d="M-18 595h123v118h-123v-118zM181 595h123v118h-123v-118zM83 0h121v528h-121v-528z" />
    <glyph glyph-name="eth" unicode="&#xf0;" horiz-adv-x="642" 
d="M321 91q-67 0 -111 46q-44 44 -44 108v2q0 66 41 107q43 43 110 43q68 0 114 -44q43 -43 43 -106v-2q0 -65 -42 -109q-43 -45 -111 -45zM316 -12q125 0 204 81q73 75 73 188v2q0 120 -88 243l-89 129l102 44l-47 63l-99 -43l-24 35h-139l58 -79l-121 -53l48 -63l119 53
l105 -143q-65 41 -139 41q-102 0 -165 -65q-67 -69 -67 -171v-2q0 -110 76 -184q78 -76 193 -76z" />
    <glyph glyph-name="ntilde" unicode="&#xf1;" horiz-adv-x="620" 
d="M125 605l67 -20q12 28 23 39t32 11q16 0 66 -20q48 -20 79 -20q44 0 69 30t43 94l-67 21q-12 -28 -23 -39t-32 -11q-15 0 -65 20t-80 20q-44 0 -69 -30t-43 -95zM76 0h121v298q0 61 32.5 96t86.5 35t83.5 -33.5t29.5 -95.5v-300h121v336q0 94 -49.5 148.5t-138.5 54.5
q-56 0 -100 -28q-35 -22 -65 -65v82h-121v-528z" />
    <glyph glyph-name="ograve" unicode="&#xf2;" horiz-adv-x="657" 
d="M281 595h94l-106 164l-110 -49zM329 93q-70 0 -115 51q-46 49 -46 119v2q0 73 43 119q46 49 116 49t117 -50q45 -50 45 -120v-2q0 -70 -43 -118q-45 -50 -117 -50zM327 -12q121 0 203 82q80 80 80 193v2q0 115 -79 194q-80 80 -202 80q-120 0 -201 -81t-81 -195v-2
q0 -115 80 -193q82 -80 200 -80z" />
    <glyph glyph-name="oacute" unicode="&#xf3;" horiz-adv-x="657" 
d="M281 595h94l122 115l-110 49zM329 93q-70 0 -115 51q-46 49 -46 119v2q0 73 43 119q46 49 116 49t117 -50q45 -50 45 -120v-2q0 -70 -43 -118q-45 -50 -117 -50zM327 -12q121 0 203 82q80 80 80 193v2q0 115 -79 194q-80 80 -202 80q-120 0 -201 -81t-81 -195v-2
q0 -115 80 -193q82 -80 200 -80z" />
    <glyph glyph-name="ocircumflex" unicode="&#xf4;" horiz-adv-x="657" 
d="M156 595h94l77 67l77 -67h96l-116 146h-112zM329 93q-70 0 -115 51q-46 49 -46 119v2q0 73 43 119q46 49 116 49t117 -50q45 -50 45 -120v-2q0 -70 -43 -118q-45 -50 -117 -50zM327 -12q121 0 203 82q80 80 80 193v2q0 115 -79 194q-80 80 -202 80q-120 0 -201 -81
t-81 -195v-2q0 -115 80 -193q82 -80 200 -80z" />
    <glyph glyph-name="otilde" unicode="&#xf5;" horiz-adv-x="657" 
d="M139 605l67 -20q12 28 23 39t32 11q15 0 65 -20q48 -20 79 -20q44 0 69 30t43 94l-67 21q-12 -28 -23 -39t-32 -11q-16 0 -64 20q-50 20 -80 20q-44 0 -69 -30t-43 -95zM329 93q-70 0 -115 51q-46 49 -46 119v2q0 73 43 119q46 49 116 49t117 -50q45 -50 45 -120v-2
q0 -70 -43 -118q-45 -50 -117 -50zM327 -12q121 0 203 82q80 80 80 193v2q0 115 -79 194q-80 80 -202 80q-120 0 -201 -81t-81 -195v-2q0 -115 80 -193q82 -80 200 -80z" />
    <glyph glyph-name="odieresis" unicode="&#xf6;" horiz-adv-x="657" 
d="M167 595h123v118h-123v-118zM366 595h123v118h-123v-118zM329 93q-70 0 -115 51q-46 49 -46 119v2q0 73 43 119q46 49 116 49t117 -50q45 -50 45 -120v-2q0 -70 -43 -118q-45 -50 -117 -50zM327 -12q121 0 203 82q80 80 80 193v2q0 115 -79 194q-80 80 -202 80
q-120 0 -201 -81t-81 -195v-2q0 -115 80 -193q82 -80 200 -80z" />
    <glyph glyph-name="oslash" unicode="&#xf8;" horiz-adv-x="657" 
d="M329 91q-46 0 -81 23l219 241q25 -45 25 -92v-2q0 -70 -44 -119q-45 -51 -119 -51zM408 412l-218 -240q-25 40 -25 91v2q0 71 44 121q45 50 118 50q44 0 81 -24zM327 -12q121 0 203 82q80 80 80 193v2q0 106 -66 178q4 5 12.5 14.5t12.5 14.5l56 62h-110l-35 -38
q-68 43 -151 43q-120 0 -201 -81t-81 -195v-2q0 -101 65 -177l-80 -89h110l34 36q68 -43 151 -43z" />
    <glyph glyph-name="ugrave" unicode="&#xf9;" horiz-adv-x="620" 
d="M275 594h94l-106 164l-110 -49zM258 -11q101 0 165 93v-82h121v528h-121v-298q0 -61 -32.5 -96t-86.5 -35t-83.5 33.5t-29.5 95.5v300h-121v-336q0 -94 49.5 -148.5t138.5 -54.5z" />
    <glyph glyph-name="uacute" unicode="&#xfa;" horiz-adv-x="620" 
d="M249 594h94l122 115l-110 49zM258 -11q101 0 165 93v-82h121v528h-121v-298q0 -61 -32.5 -96t-86.5 -35t-83.5 33.5t-29.5 95.5v300h-121v-336q0 -94 49.5 -148.5t138.5 -54.5z" />
    <glyph glyph-name="ucircumflex" unicode="&#xfb;" horiz-adv-x="620" 
d="M138 595h94l77 67l77 -67h96l-116 146h-112zM258 -11q101 0 165 93v-82h121v528h-121v-298q0 -61 -32.5 -96t-86.5 -35t-83.5 33.5t-29.5 95.5v300h-121v-336q0 -94 49.5 -148.5t138.5 -54.5z" />
    <glyph glyph-name="udieresis" unicode="&#xfc;" horiz-adv-x="620" 
d="M149 595h123v118h-123v-118zM348 595h123v118h-123v-118zM258 -11q101 0 165 93v-82h121v528h-121v-298q0 -61 -32.5 -96t-86.5 -35t-83.5 33.5t-29.5 95.5v300h-121v-336q0 -94 49.5 -148.5t138.5 -54.5z" />
    <glyph glyph-name="yacute" unicode="&#xfd;" horiz-adv-x="596" 
d="M244 594h94l122 115l-110 49zM184 -163q63 0 103 34q40 33 71 114l210 543h-126l-137 -392l-150 392h-129l220 -528q-15 -35 -31.5 -48t-43.5 -13q-33 0 -71 20l-41 -90q59 -32 125 -32z" />
    <glyph glyph-name="thorn" unicode="&#xfe;" horiz-adv-x="670" 
d="M348 94q-64 0 -108 46q-46 48 -46 123v2q0 74 46 123q43 46 108 46q63 0 107 -46q44 -47 44 -123v-2q0 -77 -44 -123t-107 -46zM76 -160h121v242q70 -93 179 -93q102 0 171 71q75 77 75 203v2q0 125 -76 203q-69 71 -170 71q-110 0 -179 -99v290h-121v-890z" />
    <glyph glyph-name="ydieresis" unicode="&#xff;" horiz-adv-x="596" 
d="M137 595h123v118h-123v-118zM336 595h123v118h-123v-118zM184 -163q63 0 103 34q40 33 71 114l210 543h-126l-137 -392l-150 392h-129l220 -528q-15 -35 -31.5 -48t-43.5 -13q-33 0 -71 20l-41 -90q59 -32 125 -32z" />
    <glyph glyph-name="dotlessi" unicode="&#x131;" horiz-adv-x="286" 
d="M83 0h121v528h-121v-528z" />
    <glyph glyph-name="Lslash" unicode="&#x141;" horiz-adv-x="649" 
d="M120 0h491v112h-369v203l202 61v114l-202 -60v270h-122v-307l-75 -23v-114l75 22v-278z" />
    <glyph glyph-name="lslash" unicode="&#x142;" horiz-adv-x="346" 
d="M113 0h120v332l76 23v115l-76 -23v283h-120v-318l-76 -23v-115l76 23v-297z" />
    <glyph glyph-name="OE" unicode="&#x152;" horiz-adv-x="1098" 
d="M540 112h-109q-108 0 -176 68q-67 67 -67 170v2q0 103 67 170q66 66 176 66h109v-476zM1042 0v110h-379v188h329v110h-329v182h374v110h-606q-162 0 -268 -101q-104 -99 -104 -249v-2q0 -149 104 -248q105 -100 268 -100h611z" />
    <glyph glyph-name="oe" unicode="&#x153;" horiz-adv-x="1040" 
d="M326 93q-69 0 -114 51q-44 49 -44 119v2q0 70 43 118q44 50 113 50q68 0 113 -50t45 -120v-2q0 -70 -42 -118q-45 -50 -114 -50zM874 301h-272q8 63 45 101t93 38q57 0 94 -40q34 -38 40 -99zM321 -12q138 0 215 111q36 -52 93 -81.5t125 -29.5q132 0 216 99l-71 63
q-66 -63 -144 -63q-59 0 -100 35t-52 99h388q2 24 2 34q0 121 -63 199q-69 85 -189 85q-132 0 -204 -109q-35 50 -90 79.5t-121 29.5q-117 0 -198 -81t-81 -195v-2q0 -113 80 -193t194 -80z" />
    <glyph glyph-name="Scaron" unicode="&#x160;" horiz-adv-x="640" 
d="M264 758h112l116 146h-94l-77 -66l-77 66h-96zM335 -10q113 0 180 55q70 57 70 154v2q0 82 -57 133q-47 40 -168 72q-101 24 -133 47q-33 21 -33 63v2q0 36 30.5 59.5t83.5 23.5q92 0 190 -72l66 93q-111 88 -254 88q-104 0 -171 -56q-68 -58 -68 -147v-2q0 -92 61 -139
q52 -43 172 -70q94 -22 128 -46q30 -22 30 -61v-2q0 -40 -33.5 -64t-90.5 -24q-116 0 -221 91l-74 -88q124 -112 292 -112z" />
    <glyph glyph-name="scaron" unicode="&#x161;" 
d="M198 595h112l116 146h-94l-77 -66l-77 66h-96zM257 -10q86 0 140 42q56 43 56 124v2q0 63 -53 104q-39 28 -111 50q-54 16 -82 31q-37 19 -37 43v2q0 24 19.5 38.5t54.5 14.5q67 0 149 -50l48 86q-91 60 -194 60q-81 0 -133 -43q-55 -45 -55 -118v-2q0 -68 54 -107
q34 -26 111 -48q60 -17 83 -29q35 -18 35 -45v-2q0 -26 -21.5 -41.5t-60.5 -15.5q-87 0 -173 65l-54 -82q102 -79 224 -79z" />
    <glyph glyph-name="Ydieresis" unicode="&#x178;" horiz-adv-x="716" 
d="M197 757h123v118h-123v-118zM396 757h123v118h-123v-118zM296 0h124v279l278 421h-141l-198 -310l-196 310h-145l278 -424v-276z" />
    <glyph glyph-name="Zcaron" unicode="&#x17d;" horiz-adv-x="702" 
d="M299 758h112l116 146h-94l-77 -66l-77 66h-96zM65 0h573v109h-413l413 500v91h-560v-109h400l-413 -500v-91z" />
    <glyph glyph-name="zcaron" unicode="&#x17e;" horiz-adv-x="560" 
d="M232 595h112l116 146h-94l-77 -66l-77 66h-96zM52 0h459v99h-305l305 346v83h-448v-99h294l-305 -346v-83z" />
    <glyph glyph-name="florin" unicode="&#x192;" horiz-adv-x="527" 
d="M97 -5q79 0 120.5 35t55.5 115l38 211h145v101h-127l12 68q8 41 27 59t54 18t69 -10v102q-39 11 -92 11q-79 0 -119.5 -38.5t-55.5 -116.5l-18 -93h-97v-101h80l-35 -193q-6 -36 -23 -51.5t-50 -15.5q-19 0 -40 3v-99q20 -5 56 -5z" />
    <glyph glyph-name="circumflex" unicode="&#x2c6;" 
d="M78 595h94l77 67l77 -67h96l-116 146h-112z" />
    <glyph glyph-name="caron" unicode="&#x2c7;" 
d="M194 595h112l116 146h-94l-77 -66l-77 66h-96z" />
    <glyph glyph-name="breve" unicode="&#x2d8;" 
d="M250 593q73 0 119.5 39t51.5 109h-83q-19 -63 -88 -63t-88 63h-83q5 -70 51.5 -109t119.5 -39z" />
    <glyph glyph-name="dotaccent" unicode="&#x2d9;" 
d="M187 595h126v119h-126v-119z" />
    <glyph glyph-name="ring" unicode="&#x2da;" 
d="M250 641q-26 0 -44 18t-18 43v2q0 25 18 43t44 18t44 -18t18 -43v-2q0 -25 -18 -43t-44 -18zM250 593q46 0 80 32q34 34 34 77v2q0 43 -34 77q-34 32 -80 32q-47 0 -79 -32q-35 -33 -35 -77v-2q0 -44 35 -77q32 -32 79 -32z" />
    <glyph glyph-name="ogonek" unicode="&#x2db;" 
d="M366 -164v56q-95 6 -95 74q0 22 6 44h-86q-15 -36 -15 -66q0 -57 49 -85.5t141 -22.5z" />
    <glyph glyph-name="tilde" unicode="&#x2dc;" 
d="M61 605l67 -20q12 28 23 39t32 11q15 0 65 -20q48 -20 79 -20q44 0 69 30t43 94l-67 21q-12 -28 -23 -39t-32 -11q-16 0 -64 20q-50 20 -80 20q-44 0 -69 -30t-43 -95z" />
    <glyph glyph-name="hungarumlaut" unicode="&#x2dd;" 
d="M56 595h90l120 115l-106 49zM238 595h90l122 115l-106 49z" />
    <glyph glyph-name="Omega" unicode="&#x3a9;" horiz-adv-x="752" 
d="M103 0h121v424h138v100h-140v29q0 80 70 80q32 0 71 -13v102q-47 14 -98 14q-78 0 -120 -43.5t-42 -129.5v-38h-67v-101h67v-424zM479 0h121v424h138v100h-140v29q0 80 70 80q32 0 71 -13v102q-47 14 -99 14q-77 0 -119 -43.5t-42 -129.5v-38h-67v-101h67v-424z" />
    <glyph glyph-name="mu" unicode="&#x3bc;" horiz-adv-x="850" 
d="M426 101q-102 0 -171 74q-67 70 -67 175v2q0 103 66 175q67 72 170 72q102 0 172 -73q66 -71 66 -176v-2q0 -103 -66 -174q-67 -73 -170 -73zM666 -101h180v8l-175 172q120 107 120 271v2q0 150 -102 254q-104 106 -263 106t-264 -107q-103 -105 -103 -255v-2
q0 -150 102 -254q104 -106 263 -106q68 0 125 22z" />
    <glyph glyph-name="pi" unicode="&#x3c0;" horiz-adv-x="830" 
d="M360 352v129h73q37 0 57.5 -16.5t20.5 -46.5v-2q0 -29 -21 -46.5t-57 -17.5h-73zM286 167h74v120h71q67 0 109 33q46 36 46 97v2q0 59 -39.5 93.5t-107.5 34.5h-153v-380zM414 24q-137 0 -230 95t-93 229v2q0 134 94 230t231 96q138 0 231 -95q92 -94 92 -229v-2
q0 -135 -93 -230q-94 -96 -232 -96zM414 -12q152 0 258 108q105 107 105 254v2q0 148 -104 254q-106 106 -257 106q-153 0 -258 -107t-105 -255v-2q0 -149 105 -254q104 -106 256 -106z" />
    <glyph glyph-name="endash" unicode="&#x2013;" horiz-adv-x="528" 
d="M56 249h416v115h-416v-115z" />
    <glyph glyph-name="emdash" unicode="&#x2014;" horiz-adv-x="898" 
d="M56 249h786v115h-786v-115z" />
    <glyph glyph-name="quoteleft" unicode="&#x2018;" horiz-adv-x="269" 
d="M63 422h133v138h-51q-7 76 85 93l-13 52q-78 -6 -116 -45t-38 -121v-117z" />
    <glyph glyph-name="quoteright" unicode="&#x2019;" horiz-adv-x="269" 
d="M39 469l13 -52q78 6 116 45t38 121v117h-133v-137h51q8 -77 -85 -94z" />
    <glyph glyph-name="quotesinglbase" unicode="&#x201a;" horiz-adv-x="269" 
d="M34 -94l13 -51q78 6 116 45t38 121v116h-133v-137h51q7 -76 -85 -94z" />
    <glyph glyph-name="quotedblleft" unicode="&#x201c;" horiz-adv-x="501" 
d="M63 422h133v138h-51q-7 76 85 93l-13 52q-78 -6 -116 -45t-38 -121v-117zM295 422h133v138h-52q-6 76 86 93l-13 52q-78 -6 -116 -45t-38 -121v-117z" />
    <glyph glyph-name="quotedblright" unicode="&#x201d;" horiz-adv-x="501" 
d="M39 469l13 -52q78 6 116 45t38 121v117h-133v-137h51q8 -77 -85 -94zM271 469l13 -52q78 6 116 45t38 121v117h-133v-137h51q8 -77 -85 -94z" />
    <glyph glyph-name="quotedblbase" unicode="&#x201e;" horiz-adv-x="501" 
d="M34 -94l13 -51q78 6 116 45t38 121v116h-133v-137h51q7 -76 -85 -94zM266 -94l13 -51q78 6 116 45t38 121v116h-133v-137h51q7 -76 -85 -94z" />
    <glyph glyph-name="dagger" unicode="&#x2020;" horiz-adv-x="410" 
d="M169 238h72l-9 275l122 -9v71l-121 -9l12 134h-80l12 -134l-121 9v-71l122 9z" />
    <glyph glyph-name="daggerdbl" unicode="&#x2021;" horiz-adv-x="430" 
d="M175 0h80l-12 134l121 -9v71l-121 -9l8 163l-8 163l121 -9v71l-121 -9l12 134h-80l12 -134l-121 9v-71l121 9l-8 -163l8 -163l-121 9v-71l121 9z" />
    <glyph glyph-name="bullet" unicode="&#x2022;" horiz-adv-x="491" 
d="M245 211q58 0 101 41q41 39 41 99v2q0 59 -42 99q-43 41 -100 41q-58 0 -99 -41q-42 -42 -42 -99v-2q0 -59 42 -99q43 -41 99 -41z" />
    <glyph glyph-name="ellipsis" unicode="&#x2026;" horiz-adv-x="792" 
d="M68 0h130v134h-130v-134zM331 0h130v134h-130v-134zM594 0h130v134h-130v-134z" />
    <glyph glyph-name="perthousand" unicode="&#x2030;" horiz-adv-x="1228" 
d="M637 69q-33 0 -55 29.5t-22 72.5v2q0 43 20.5 71.5t54.5 28.5q33 0 55 -29.5t22 -72.5v-2q0 -43 -20.5 -71.5t-54.5 -28.5zM1016 69q-33 0 -55 29.5t-22 72.5v2q0 43 20.5 71.5t54.5 28.5q33 0 55 -29.5t22 -72.5v-2q0 -43 -20.5 -71.5t-54.5 -28.5zM214 427
q-33 0 -55 29.5t-22 72.5v2q0 43 20.5 71.5t54.5 28.5q33 0 55 -29.5t22 -72.5v-2q0 -43 -20.5 -71.5t-54.5 -28.5zM635 -8q73 0 120 54q46 51 46 125v2q0 72 -45 125q-47 52 -119 52t-120 -53q-46 -52 -46 -126v-2q0 -73 46 -124q45 -53 118 -53zM1014 -8q73 0 120 54
q46 51 46 125v2q0 72 -45 125q-47 52 -119 52q-74 0 -120 -53q-46 -52 -46 -126v-2q0 -74 45 -124q45 -53 119 -53zM119 0h99l512 700h-99zM212 350q73 0 120 54q46 51 46 125v2q0 72 -45 125q-47 52 -119 52t-120 -53q-46 -52 -46 -126v-2q0 -73 46 -124q45 -53 118 -53z
" />
    <glyph glyph-name="guilsinglleft" unicode="&#x2039;" horiz-adv-x="354" 
d="M210 41l92 47l-132 177l132 176l-92 47l-166 -220v-8z" />
    <glyph glyph-name="guilsinglright" unicode="&#x203a;" horiz-adv-x="354" 
d="M145 41l165 219v8l-165 220l-92 -48l132 -177l-132 -176z" />
    <glyph glyph-name="fraction" unicode="&#x2044;" horiz-adv-x="459" 
d="M-70 -98h110l467 856h-110z" />
    <glyph glyph-name="trademark" unicode="&#x2122;" horiz-adv-x="690" 
d="M121 392h59v254h95v54h-249v-54h95v-254zM341 392h57v219l95 -148h6l95 148v-219h57v308h-61l-93 -146l-93 146h-63v-308z" />
    <glyph glyph-name="radical" unicode="&#x221a;" horiz-adv-x="1038" 
d="M834 0h122v730h-122v-730zM103 0h121v424h138v100h-140v29q0 80 70 80q32 0 71 -13v102q-47 14 -98 14q-78 0 -120 -43.5t-42 -129.5v-38h-67v-101h67v-424zM479 0h121v424h138v100h-140v29q0 80 70 80q32 0 71 -13v102q-47 14 -99 14q-77 0 -119 -43.5t-42 -129.5v-38
h-67v-101h67v-424z" />
    <glyph glyph-name="approxequal" unicode="&#x2248;" horiz-adv-x="1038" 
d="M834 0h122v528h-122v-528zM103 0h121v424h138v100h-140v29q0 80 70 80q32 0 71 -13v102q-47 14 -98 14q-78 0 -120 -43.5t-42 -129.5v-38h-67v-101h67v-424zM479 0h121v424h138v100h-140v29q0 80 70 80q32 0 71 -13v102q-47 14 -99 14q-77 0 -119 -43.5t-42 -129.5v-38
h-67v-101h67v-424zM830 609h130v115h-130v-115z" />
    <glyph glyph-name="apple" unicode="&#xf8ff;" horiz-adv-x="967" 
d="M417 64q0 16 -12 16t-12 -16q0 -17 12 -17t12 17zM352 64v10q0 4 -4 4q-7 0 -7 -6q0 -8 8 -8h3zM553 79q-5 0 0 -9q5 9 0 9zM393 182l-9 35q-3 6 -6 7h-6q-14 0 -14 -17q0 -12 7.5 -22t18.5 -10h5q4 0 4 7zM716 187q0 15 -8 27t-17 12q-11 0 -11 -14q0 -15 8 -26.5
t17 -11.5q11 0 11 13zM280 200l-3 19q-2 5 -9 5q-8 0 -8 -9q0 -15 15 -15h5zM392 384v22h-11q-13 0 -13 -11t13 -11h11zM684 535q0 15 -8 27t-17 12q-11 0 -11 -14q0 -15 8 -26.5t17 -11.5q11 0 11 13zM272 553q-1 1 -7 1q-4 0 -4 -3q0 -2 4 -2t7 4zM566 553q-1 1 -7 1
q-4 0 -4 -3q0 -2 4 -2t7 4zM176 548l-3 19q-2 5 -9 5q-8 0 -8 -9q0 -15 15 -15h5zM441 -88q0 -12 -11 -12t-11 13q0 12 11 12t11 -13zM800 -88q0 -12 -11 -12t-11 13q0 12 11 12t11 -13zM564 -92h-10l5 12zM394 -83q0 -6 -11 -6v13q11 2 11 -7zM525 -82q0 -8 -11 -6v12
q11 2 11 -6zM606 -83q0 -6 -11 -6v13q11 2 11 -7zM309 46h-18v2q2 0 3 1q3 3 3 5v9q-2 0 -4 -2l-8 -8q-4 -5 2 -5v-2h-17v2q0 1 2 2.5t3 1.5t2 1l13 13l-10 9l-2 2l-3 1l-3 1v2h14v-2l-3 -3l2 -1l8 -8q2 -2 4 -2v9q0 1 -2.5 3t-3.5 2v2h18v-2q-6 0 -6 -5v-20q0 -4 3 -5
q1 -1 3 -1v-2zM364 46h-17v2q1 0 2 1l2 2q1 0 1 2v9q-4 0 -7 -4l-7 -12h-11v2l2 1l1 1q2 0 2 1q1 0 3 2l7 10q-9 5 -9 9q0 9 13 9h18v-2q-5 0 -5 -6v-20q0 -5 5 -5v-2zM425 64q0 -19 -20 -19t-20 19q0 18 20 18t20 -18zM480 81v-2q-1 0 -2 -1t-2 -1l-3 -3l-8 -12v-8
q0 -6 5 -6v-2h-17v2q1 0 2 1q3 3 3 5v8l-8 12q-1 1 -3 2l-2 2q-1 1 -3 1v2h15v-2q-8 0 -3 -5l6 -9l6 9q2 3 1 4t-2 1v2h15zM583 81v-2q-1 0 -2 -1l-2 -2l-3 -3l-12 -27h-1l-9 16l-8 -16q0 -1 -1 0h-1l-13 27l-1 2l-3 3t-2 1v2h13v-2q-1 0 -2 -1q-2 -2 0 -5l8 -18l7 13l-3 5
l-3 3q-3 3 -4 3l-1 2h26v-2l-2 -2q-1 -1 -2 -1l-1 -1q-1 -1 -1 -2l-4 -8l5 -10l9 19q1 3 0 4t-2 1v2h15zM633 46h-30l-2 11l2 1q0 -9 10 -9h4q4 0 4 3v11h-4q-2 0 -5 -3q-1 -1 -1 -3h-2v13h2q0 -5 6 -5h4v10q0 3 -4 3h-4q-6 0 -7 -4q-2 -2 -2 -4l-2 1l2 10h29v-2h-3
q-2 -2 -2 -5v-21q0 -5 2 -5q2 -2 3 0v-2zM694 46h-14v2q1 0 2 1q3 3 3 4v20l-25 -28h-3v28q0 2 -3 5q-1 1 -3 1v2h15v-2q-2 0 -3 -1q-3 -2 -3 -5v-18l24 26h10v-2q-6 -2 -6 -6v-20q0 -5 6 -5v-2zM827 127h-685v6h685v-6zM307 171h-29l-1 3q3 0 4 1q5 2 3 7l-3 15q-3 0 -5 -3
l-12 -23h-19l-1 3q2 0 6 1q2 2 4 2q4 3 4 5l9 16q-19 2 -19 15q0 15 20 15h27l1 -3q-3 0 -4 -1q-5 -2 -3 -7l7 -35q1 -3 3 -5q6 -3 7 -3zM414 171h-32q-13 0 -24 10t-11 25q0 22 25 22h30l1 -3q-11 -2 -8 -10l8 -31q1 -8 6 -9q2 -2 4 0zM523 171h-21l-1 3q3 0 4 1q3 2 2 9
l-6 30l-30 -44l-3 1l-8 45q-2 6 -5 8q-1 1 -4 1l-1 3h21l1 -3q-3 0 -4 -1q-5 -2 -3 -8l5 -30l29 42h14l1 -3q-9 0 -8 -9l7 -32q1 -8 6 -9q1 -1 3 -1zM620 228l1 -3q-3 2 -5 0q-7 -2 -3 -9l5 -22q7 -24 -19 -24q-21 0 -28 27l-4 19q-2 7 -6 8q-2 1 -5 1l-1 3h24v-3q-2 2 -4 0
q-5 -1 -3 -9l4 -19q6 -22 20 -22q10 0 12 5t-1 15l-5 21q-2 7 -6 8q-1 1 -4 1l-1 3h29zM823 171h-29l-1 3q3 0 4 1q5 2 3 7l-3 17h-4q-5 0 -7 -6q-1 -2 -1 -5h-3l-5 23h3q2 -9 12 -9h4l-3 16q-1 6 -6 6h-4q-11 0 -12 -7q-2 -4 -1 -6h-4v7v10h45l1 -3q-3 0 -4 -1q-5 -2 -3 -7
l7 -35q1 -3 3 -5q6 -3 7 -3zM203 217l-2 -2q-7 7 -12 7q-9 0 -9 -13q0 -7 5 -25q1 -8 6 -9q2 -2 4 0l1 -4h-28l-1 4q5 -2 7 6q1 1 -1 9q-8 33 -24 33q-8 0 -8 -6l-3 1q0 12 12 12q14 0 21 -23q-2 23 14 23q11 0 18 -13zM728 192q0 -11 -7.5 -16.5t-15.5 -5.5q-15 0 -26 11
t-11 27q0 11 7.5 16.5t15.5 5.5q14 0 25.5 -11.5t11.5 -26.5zM827 271h-685v6h685v-6zM283 308h-141v61h41v-28h33v21h-24v24h24v20h-33v-28h-41v62h141v-34h-14v-65h14v-33zM458 308h-81v33h15v19h-30q-21 0 -34 11t-13 29t13 29t34 11h96v-34h-14v-65h14v-33zM648 406h-14
l-37 -45v-20h15v-33h-81v33h14v19l-37 46h-12v34h62v-34h-10l15 -23l15 23h-11v34h81v-34zM827 378h-36v28h-11v-65h14v-33h-81v33h14v65h-11v-28h-36v62h147v-62zM827 475h-685v6h685v-6zM400 521q0 -3 -4 -3q-9 0 -12 7q-8 0 -10 -6q-1 -7 -15 -7q-15 0 -15 12q0 7 5 7
t5 -5q0 -2 -1 -2q-1 -1 -1 -3q0 -4 5 -4t9 7q3 6 14 6q-10 10 -12 28q-2 17 -9 17q-5 0 -5 -6t-4 -6q-5 0 -5 5q0 3 4 6.5t9 3.5q12 0 17 -6q6 -9 8 -31q0 -8 4 -11q7 -2 10 -4q3 -3 3 -5zM203 519h-29l-1 3q3 0 4 1q5 2 3 7l-3 15q-3 0 -5 -3l-12 -23h-19l-1 3q2 0 6 1
q2 2 4 2q4 3 4 5l9 16q-19 2 -19 15q0 15 20 15h27l1 -3q-3 0 -4 -1q-5 -2 -3 -7l7 -35q1 -3 3 -5q6 -3 7 -3zM498 519h-29l-1 3q3 0 4 1q5 2 3 7l-3 17h-4q-6 0 -7 -6q-1 -2 -1 -5h-3l-5 23h3q2 -9 12 -9h4l-3 16q-2 6 -6 6h-4q-11 0 -12 -7q-2 -4 -1 -6h-4v7v10h45l1 -3
q-3 0 -4 -1q-5 -2 -3 -7l7 -35q1 -3 3 -5q6 -3 7 -3zM821 519h-29l-1 3q3 0 4 1q5 2 3 7l-3 16h-24l3 -16q1 -3 3 -5q6 -3 7 -3l1 -3h-29l-1 3q3 0 4 1q5 2 3 7l-7 35q-2 6 -6 7q-1 1 -4 1l-1 3h29l1 -3q-3 0 -4 -1q-5 -2 -3 -7l3 -15h24l-3 15q-2 6 -5 7q-1 1 -4 1l-1 3h28
l1 -3q-3 0 -4 -1q-5 -2 -3 -7l7 -35q1 -3 3 -5q6 -3 7 -3zM295 537q0 -19 -25 -19q-16 0 -16 13q0 10 9 10q7 0 7 -5t-4 -5q-2 0 -3 1t-2 1q-3 0 -3 -3q0 -9 12 -9t12 14q0 11 -6 15q-5 -5 -11 -5q-8 0 -8 6q0 7 16 6q2 2 2 6q0 12 -10 12q-7 0 -7 -5q0 -2 2 -2q1 -1 1 -4
t-4 -3q-5 0 -5 6q0 11 13 11q21 0 21 -15q0 -6 -5 -9q14 -5 14 -17zM589 537q0 -19 -25 -19q-16 0 -16 13q0 10 9 10q7 0 7 -5t-4 -5q-2 0 -3 1t-2 1q-3 0 -3 -3q0 -9 12 -9t12 14q0 11 -6 15q-5 -5 -11 -5q-8 0 -8 6q0 7 16 6q2 2 2 6q0 12 -10 12q-7 0 -7 -5q0 -2 2 -2
q1 -1 1 -4t-4 -3q-5 0 -5 6q0 11 13 11q21 0 21 -15q0 -6 -5 -9q14 -5 14 -17zM696 540q0 -11 -7.5 -16.5t-15.5 -5.5q-15 0 -26 11t-11 27q0 11 7.5 16.5t15.5 5.5q14 0 25.5 -11.5t11.5 -26.5zM827 618h-685v6h685v-6zM439 662h-30l-2 11l2 1q0 -9 10 -9h4q4 0 4 3v11h-4
q-2 0 -5 -3q-1 -1 -1 -3h-2v13h2q0 -5 6 -5h4v10q0 3 -4 3h-4q-6 0 -7 -4q-2 -2 -2 -4l-2 1l2 10h29v-2h-3q-2 -2 -2 -5v-21q0 -5 2 -5q2 -2 3 0v-2zM504 662h-18v2q1 -1 2 0q3 0 3 5v10h-17v-10q0 -5 5 -5v-2h-17v2q1 0 2 1l2 2q1 0 1 2v21q0 2 -3 5h-2v2h17v-1v-1h-3
q-2 -2 -2 -5v-9h17v9q0 2 -3 5h-2v1v1h18v-2h-3q-3 -1 -3 -5v-21q0 -5 3 -5q1 -2 3 0v-2zM559 686h-2q0 2 -2 4q-5 5 -8 5t-3 -3v-23q0 -5 2 -5q2 -2 3 0v-2h-17v2q1 -1 2 0q3 0 3 5v23q0 3 -3 3q-7 0 -10 -9h-2v4q0 3 1 4v4q2 -1 18 -1t17 1q0 -3 1 -4v-4v-4zM284 -101
q0 4 -4 4t-4 -4t4 -4t4 4zM716 -101q0 4 -4 4t-4 -4t4 -4t4 4zM155 -71h-6l-7 -22l-10 23h-1l-10 -23l-7 23l-6 -1l12 -34h1l10 23l11 -23h1zM211 -71h-6l-7 -22l-10 23h-1l-10 -23l-7 23l-6 -1l12 -34h1l10 23l11 -23h1zM267 -71h-6l-7 -22l-10 23h-1l-10 -23l-7 23l-6 -1
l12 -34h1l10 23l11 -23h1zM323 -71h-30v-5h12v-28h6v28h12v5zM364 -71h-7l-9 -14l-11 15l-6 -1l14 -19v-14h6v14zM400 -82q0 5 -4 9t-19 2v-33h6v10q17 0 17 12zM447 -87q0 7 -4.5 12t-11.5 5q-18 0 -18 -18q0 -17 17 -17t17 18zM491 -86h-15v-5h9v-7q-1 0 -3 -1t-3 -1
q-13 0 -13 12q0 13 12 13q7 0 11 -4l2 5q-5 4 -12 4q-19 0 -19 -18q0 -17 18 -17q8 0 13 4v15zM534 -104l-10 13q7 3 7 10q0 5 -4 9q-4 3 -19 1v-33h6v11h5l8 -11h7zM576 -104l-16 34h-2l-15 -34h6l3 8h14l4 -8h6zM612 -82q0 5 -4 9t-19 2v-33h6v10q17 0 17 12zM656 -104v33
h-6v-13h-16v13h-6v-33h6v15h16v-15h6zM702 -71h-7l-9 -14l-11 15l-6 -1l14 -19v-14h6v14zM757 -102l1 6q-5 -4 -10 -4q-13 0 -13 13q0 12 12 12q6 0 9 -3l2 5q-4 3 -11 3q-18 0 -18 -18q0 -17 18 -17q7 0 10 3zM806 -87q0 7 -4.5 12t-11.5 5q-18 0 -18 -18q0 -17 17 -17
t17 18zM859 -104l-6 34h-1l-13 -26l-13 26h-1l-6 -34h6l3 20l10 -21h2l10 21l3 -20h6zM868 0v750h-767v-750h767z" />
    <glyph glyph-name="NUL" horiz-adv-x="0" 
 />
  </font>
</defs>
</svg>
